<svg width="400" height="400" viewBox="0 0 400 400" fill="none" xmlns="http://www.w3.org/2000/svg">
<path d="M314.288 88.9689V262.883H2.75488V88.9689H29.1518V62.5565H78.9728V88.9689H238.07V62.5565H287.891V88.9689H314.288Z" fill="white" stroke="#231F20" style="fill:white;fill-opacity:1;stroke:#231F20;stroke:color(display-p3 0.1373 0.1216 0.1255);stroke-opacity:1;" stroke-width="1.12587" stroke-miterlimit="10"/>
<path d="M8.98071 257.42V95.9572H35.3776V69.5447H72.7472V95.9572H244.296V69.5447H281.666V95.9572H308.062V257.42H8.98071Z" stroke="#016435" style="stroke:#016435;stroke:color(display-p3 0.0039 0.3922 0.2078);stroke-opacity:1;" stroke-width="3.37761" stroke-miterlimit="10"/>
<path d="M12.0935 254.307V99.07H38.4904V72.6576H69.6344V99.07H247.409V72.6576H278.553V99.07H304.949V254.307H12.0935Z" stroke="#084120" style="stroke:#084120;stroke:color(display-p3 0.0314 0.2549 0.1255);stroke-opacity:1;" stroke-width="2.25174" stroke-miterlimit="10"/>
<path d="M67.5486 321.591H39.2841V324.704H67.5486V321.591Z" fill="#231F20" style="fill:#231F20;fill:color(display-p3 0.1373 0.1216 0.1255);fill-opacity:1;"/>
<path d="M67.5486 291.957H39.2841V295.07H67.5486V291.957Z" fill="#231F20" style="fill:#231F20;fill:color(display-p3 0.1373 0.1216 0.1255);fill-opacity:1;"/>
<path d="M282.556 199.054C281.94 199.054 281.365 198.795 280.83 198.276C275.463 192.975 269.497 189.408 262.931 187.576L263.125 192.342L263.247 197.133C263.247 197.847 263.012 198.438 262.542 198.909C262.088 199.395 261.512 199.638 260.815 199.638C260.118 199.638 259.534 199.395 259.064 198.909C258.61 198.438 258.383 197.847 258.383 197.133C258.383 195.852 258.318 193.947 258.189 191.418C258.075 188.873 258.018 186.96 258.018 185.679C258.018 184.187 258.181 181.966 258.505 179.016C258.829 176.065 258.991 173.852 258.991 172.376C258.991 171.55 258.91 170.326 258.748 168.704C258.602 167.083 258.529 165.859 258.529 165.032C258.529 164.108 258.789 163.297 259.307 162.6C259.923 161.741 260.775 161.352 261.861 161.433L267.722 161.895C269.943 162.171 271.815 162.714 273.339 163.524C279.906 167.01 283.189 171.266 283.189 176.292C283.189 178.756 282.07 180.937 279.833 182.834C278.033 184.358 275.788 185.517 273.096 186.311C278.138 189.019 281.908 191.872 284.405 194.872C284.826 195.39 285.037 195.942 285.037 196.525C285.037 197.206 284.786 197.798 284.283 198.301C283.797 198.803 283.221 199.054 282.556 199.054ZM267.065 166.905L263.466 166.613L263.709 169.555C263.823 170.755 263.879 171.736 263.879 172.498C263.879 173.795 263.774 175.408 263.563 177.338L263.052 182.177C263.279 182.177 263.628 182.185 264.098 182.201C264.585 182.218 264.949 182.226 265.193 182.226C269.327 182.226 272.423 181.674 274.482 180.572C275.39 180.069 276.233 179.413 277.012 178.602C277.871 177.694 278.301 176.924 278.301 176.292C278.301 174.038 277.02 171.939 274.458 169.993C272.107 168.21 269.643 167.18 267.065 166.905Z" fill="#231F20" style="fill:#231F20;fill:color(display-p3 0.1373 0.1216 0.1255);fill-opacity:1;"/>
<path d="M251.16 166.053C250.933 166.053 250.682 166.013 250.407 165.932C247.667 165.154 245.024 164.765 242.479 164.765C241.149 164.765 239.698 164.886 238.125 165.129C236.553 165.373 234.859 165.745 233.043 166.248C233.189 167.302 233.262 168.145 233.262 168.777C233.262 171.031 233.124 174.127 232.848 178.067L243.5 177.046C246.629 176.721 248.55 176.559 249.264 176.559C249.977 176.559 250.577 176.786 251.063 177.24C251.55 177.694 251.793 178.302 251.793 179.064C251.793 180.54 251.047 181.366 249.555 181.545L243.767 182.055L232.532 183.077C232.467 184.228 232.41 185.322 232.362 186.36C232.329 187.381 232.313 188.338 232.313 189.23C232.313 192.813 232.573 194.92 233.091 195.552C233.48 196.006 234.753 196.233 236.909 196.233C237.915 196.233 239.422 196.209 241.433 196.16C243.459 196.096 244.983 196.063 246.005 196.063C246.329 196.063 246.807 196.015 247.44 195.917C248.072 195.804 248.542 195.747 248.85 195.747C250.569 195.747 251.428 196.59 251.428 198.276C251.428 199.638 250.739 200.457 249.361 200.732C247.837 201.04 244.538 201.195 239.463 201.195C234.437 201.195 231.211 200.53 229.784 199.2C228.228 197.757 227.449 194.434 227.449 189.23C227.449 188.192 227.474 187.057 227.522 185.825C227.571 184.593 227.636 183.263 227.717 181.837C227.538 181.464 227.449 181.066 227.449 180.645C227.449 180.094 227.603 179.599 227.911 179.161C228.236 174.476 228.398 171.015 228.398 168.777C228.398 168.177 228.317 167.302 228.155 166.151C227.992 164.983 227.911 164.1 227.911 163.5C227.911 161.571 228.722 160.606 230.343 160.606C231.024 160.606 231.608 160.841 232.094 161.311C234.04 160.792 235.872 160.403 237.59 160.144C239.325 159.885 240.955 159.755 242.479 159.755C246.418 159.755 249.563 160.225 251.914 161.165C253.001 161.603 253.544 162.381 253.544 163.5C253.544 164.148 253.333 164.724 252.911 165.227C252.441 165.778 251.858 166.053 251.16 166.053Z" fill="#231F20" style="fill:#231F20;fill:color(display-p3 0.1373 0.1216 0.1255);fill-opacity:1;"/>
<path d="M214.268 198.617C211.755 200.335 208.148 201.195 203.446 201.195C202.263 201.195 200.909 201.008 199.385 200.635C197.553 200.197 196.175 199.63 195.251 198.933H195.008C194.311 198.933 193.727 198.69 193.257 198.203C192.787 197.717 192.552 197.125 192.552 196.428C192.552 194.726 192.624 192.18 192.77 188.792C192.933 185.387 193.014 182.834 193.014 181.131C193.014 179.234 192.973 176.405 192.892 172.644C192.827 168.866 192.795 166.029 192.795 164.132C192.795 163.468 193.135 162.77 193.816 162.041C194.497 161.311 195.178 160.946 195.859 160.946C196.248 160.946 197.545 161.49 199.75 162.576C202.247 163.792 203.69 164.465 204.079 164.594C208.683 166.167 212.607 168.583 215.849 171.841C219.659 175.684 221.564 179.907 221.564 184.512C221.564 187.284 220.908 189.943 219.594 192.488C218.297 195.034 216.522 197.076 214.268 198.617ZM209.161 172.887C207.508 171.801 203.69 169.936 197.707 167.294L197.829 174.298L197.902 181.277L197.513 194.555C197.626 194.604 197.796 194.709 198.023 194.872C199.45 195.828 201.25 196.306 203.422 196.306C207.119 196.306 209.81 195.739 211.496 194.604C213.069 193.534 214.317 192.099 215.241 190.3C216.182 188.484 216.652 186.595 216.652 184.633C216.652 180.061 214.155 176.146 209.161 172.887Z" fill="#231F20" style="fill:#231F20;fill:color(display-p3 0.1373 0.1216 0.1255);fill-opacity:1;"/>
<path d="M185.596 197.79C183.764 198.649 180.887 199.419 176.963 200.1C173.348 200.732 170.397 201.049 168.111 201.049C166.473 201.049 165.298 200.797 164.585 200.295C163.612 199.614 163.125 198.365 163.125 196.55L163.612 188.5C164.033 181.075 164.244 172.838 164.244 163.792C164.244 163.095 164.471 162.503 164.925 162.016C165.395 161.53 165.971 161.287 166.652 161.287C167.349 161.287 167.924 161.53 168.378 162.016C168.849 162.503 169.084 163.095 169.084 163.792C169.084 172.952 168.865 181.285 168.427 188.792L168.111 192.488C167.981 193.834 167.933 195.026 167.965 196.063C172.196 196.112 177.547 195.115 184.016 193.072C184.291 192.991 184.551 192.95 184.794 192.95C185.491 192.95 186.075 193.226 186.545 193.777C186.95 194.28 187.153 194.855 187.153 195.504C187.153 196.541 186.634 197.303 185.596 197.79Z" fill="#231F20" style="fill:#231F20;fill:color(display-p3 0.1373 0.1216 0.1255);fill-opacity:1;"/>
<path d="M140.387 200.27C135.815 200.27 131.94 198.9 128.763 196.16C125.39 193.242 123.704 189.481 123.704 184.876C123.704 179.267 125.366 174.168 128.69 169.58C132.402 164.489 137.031 161.944 142.576 161.944C147.91 161.944 151.874 163.143 154.468 165.543C157.175 168.04 158.529 171.979 158.529 177.362C158.529 182.971 157.005 188.03 153.957 192.537C150.455 197.693 145.932 200.27 140.387 200.27ZM142.576 166.929C138.604 166.929 135.24 168.907 132.483 172.863C129.938 176.494 128.665 180.499 128.665 184.876C128.665 188.005 129.825 190.551 132.143 192.513C134.364 194.361 137.112 195.285 140.387 195.285C144.327 195.285 147.577 193.299 150.139 189.327C152.425 185.776 153.568 181.788 153.568 177.362C153.568 173.487 152.701 170.763 150.966 169.191C149.312 167.683 146.516 166.929 142.576 166.929Z" fill="#231F20" style="fill:#231F20;fill:color(display-p3 0.1373 0.1216 0.1255);fill-opacity:1;"/>
<path d="M118.014 164.521C117.77 165.202 117.649 166.199 117.649 167.513C117.649 167.999 117.665 168.72 117.697 169.677C117.73 170.634 117.746 171.355 117.746 171.841C117.746 173.463 117.6 175.878 117.308 179.089C117.033 182.299 116.895 184.714 116.895 186.336C116.895 187.568 116.984 189.416 117.162 191.88C117.341 194.345 117.43 196.201 117.43 197.449C117.43 198.114 117.203 198.673 116.749 199.127C116.311 199.581 115.76 199.808 115.095 199.808C114.447 199.808 113.896 199.581 113.442 199.127C112.988 198.673 112.761 198.114 112.761 197.449C112.761 196.201 112.671 194.345 112.493 191.88C112.315 189.416 112.226 187.568 112.226 186.336C112.226 185.152 112.266 183.952 112.347 182.736C109.575 182.785 106.146 183.198 102.06 183.977L91.8463 185.971C91.8463 187.43 91.7003 189.505 91.4085 192.196C91.1167 194.872 90.9708 196.947 90.9708 198.422C90.9708 199.087 90.7438 199.646 90.2898 200.1C89.8521 200.57 89.3009 200.805 88.6361 200.805C87.9714 200.805 87.4121 200.57 86.9581 200.1C86.5204 199.646 86.3015 199.087 86.3015 198.422C86.3015 196.704 86.4393 194.142 86.7149 190.737C87.0068 187.316 87.1527 184.747 87.1527 183.028C87.1527 182.136 87.1203 180.791 87.0554 178.991C86.9906 177.192 86.9581 175.838 86.9581 174.93C86.9581 173.649 87.0392 171.728 87.2013 169.166C87.3634 166.589 87.4445 164.659 87.4445 163.378C87.4445 162.697 87.6634 162.13 88.1011 161.676C88.5551 161.222 89.1144 160.995 89.7791 160.995C90.4439 160.995 90.9951 161.222 91.4328 161.676C91.8868 162.13 92.1138 162.697 92.1138 163.378C92.1138 164.675 92.0246 166.621 91.8463 169.215C91.6841 171.793 91.6031 173.73 91.6031 175.027L91.749 181.18L102.182 179.21C106.349 178.432 109.859 178.027 112.712 177.994C112.89 175.676 112.98 172.182 112.98 167.513C112.98 166.28 113.182 165.032 113.588 163.767C114.123 162.033 114.876 161.165 115.849 161.165C116.465 161.165 117.016 161.392 117.503 161.846C117.989 162.284 118.232 162.843 118.232 163.524C118.232 163.767 118.159 164.1 118.014 164.521Z" fill="#231F20" style="fill:#231F20;fill:color(display-p3 0.1373 0.1216 0.1255);fill-opacity:1;"/>
<path d="M78.3491 187.235C76.1442 187.462 72.2207 187.576 66.5787 187.576C65.2168 187.576 64.5359 186.944 64.5359 185.679C64.5359 184.414 65.2168 183.782 66.5787 183.782C67.8595 183.782 69.7807 183.725 72.3423 183.612C74.9039 183.498 76.8251 183.442 78.1059 183.442C79.5489 183.442 80.2703 184.074 80.2703 185.338C80.2703 186.457 79.6299 187.089 78.3491 187.235Z" fill="#231F20" style="fill:#231F20;fill:color(display-p3 0.1373 0.1216 0.1255);fill-opacity:1;"/>
<path d="M57.8239 166.053C57.5969 166.053 57.3456 166.013 57.07 165.932C54.33 165.154 51.6874 164.765 49.142 164.765C47.8125 164.765 46.3615 164.886 44.7889 165.129C43.2162 165.373 41.522 165.745 39.7062 166.248C39.8521 167.302 39.925 168.145 39.925 168.777C39.925 171.031 39.7872 174.127 39.5116 178.067L50.1634 177.046C53.2924 176.721 55.2136 176.559 55.927 176.559C56.6404 176.559 57.2402 176.786 57.7266 177.24C58.213 177.694 58.4562 178.302 58.4562 179.064C58.4562 180.54 57.7104 181.366 56.2188 181.545L50.4309 182.055L39.1955 183.077C39.1306 184.228 39.0739 185.322 39.0252 186.36C38.9928 187.381 38.9766 188.338 38.9766 189.23C38.9766 192.813 39.236 194.92 39.7548 195.552C40.1439 196.006 41.4166 196.233 43.5729 196.233C44.5781 196.233 46.0859 196.209 48.0963 196.16C50.1228 196.096 51.6468 196.063 52.6682 196.063C52.9925 196.063 53.4708 196.015 54.1031 195.917C54.7354 195.804 55.2055 195.747 55.5136 195.747C57.2321 195.747 58.0914 196.59 58.0914 198.276C58.0914 199.638 57.4024 200.457 56.0243 200.732C54.5003 201.04 51.201 201.195 46.1264 201.195C41.1005 201.195 37.8741 200.53 36.4474 199.2C34.891 197.757 34.1128 194.434 34.1128 189.23C34.1128 188.192 34.1371 187.057 34.1858 185.825C34.2344 184.593 34.2992 183.263 34.3803 181.837C34.202 181.464 34.1128 181.066 34.1128 180.645C34.1128 180.094 34.2668 179.599 34.5749 179.161C34.8991 174.476 35.0612 171.015 35.0612 168.777C35.0612 168.177 34.9802 167.302 34.818 166.151C34.6559 164.983 34.5749 164.1 34.5749 163.5C34.5749 161.571 35.3855 160.606 37.0068 160.606C37.6877 160.606 38.2714 160.841 38.7577 161.311C40.7033 160.792 42.5353 160.403 44.2538 160.144C45.9886 159.885 47.618 159.755 49.142 159.755C53.0817 159.755 56.2269 160.225 58.5778 161.165C59.664 161.603 60.2072 162.381 60.2072 163.5C60.2072 164.148 59.9964 164.724 59.5749 165.227C59.1047 165.778 58.521 166.053 57.8239 166.053Z" fill="#231F20" style="fill:#231F20;fill:color(display-p3 0.1373 0.1216 0.1255);fill-opacity:1;"/>
<path d="M398.771 223.584C398.771 275.895 356.202 318.463 303.891 318.463H117.899C119.269 315.35 120.016 311.926 120.016 308.331C120.016 304.735 119.284 301.42 117.977 298.354C117.961 298.307 117.946 298.276 117.914 298.23H303.891C345.058 298.23 378.537 264.751 378.537 223.584C378.537 185.949 350.553 154.728 314.288 149.669V129.28C361.728 134.463 398.771 174.774 398.771 223.584Z" fill="#231F20" style="fill:#231F20;fill:color(display-p3 0.1373 0.1216 0.1255);fill-opacity:1;"/>
<path d="M124.187 313.794C124.514 312.004 124.685 310.183 124.685 308.331C124.685 306.479 124.514 304.689 124.187 302.899H303.891C347.627 302.899 383.206 267.319 383.206 223.584C383.206 185.607 355.86 152.829 318.957 145.716V134.634C362.148 141.872 394.101 179.226 394.101 223.584C394.101 273.327 353.634 313.794 303.891 313.794H124.187Z" fill="#016435" stroke="#00411D" style="fill:#016435;fill:color(display-p3 0.0039 0.3922 0.2078);fill-opacity:1;stroke:#00411D;stroke:color(display-p3 0.0000 0.2549 0.1137);stroke-opacity:1;" stroke-width="1.12587" stroke-miterlimit="10"/>
<path d="M67.5488 281.311H94.5683C109.479 281.311 121.588 293.42 121.588 308.331C121.588 323.241 109.479 335.35 94.5683 335.35H67.5488V281.311Z" fill="white" stroke="#231F20" style="fill:white;fill-opacity:1;stroke:#231F20;stroke:color(display-p3 0.1373 0.1216 0.1255);stroke-opacity:1;" stroke-width="1.12587" stroke-miterlimit="10"/>
<path d="M70.6616 332.253V284.44H94.5682C107.751 284.44 118.475 295.163 118.475 308.346C118.475 321.529 107.751 332.253 94.5682 332.253H70.6616Z" fill="white" stroke="#084120" style="fill:white;fill-opacity:1;stroke:#084120;stroke:color(display-p3 0.0314 0.2549 0.1255);stroke-opacity:1;" stroke-width="1.12587" stroke-miterlimit="10"/>
<path d="M73.7744 329.125V287.537H94.5682C106.039 287.537 115.362 296.86 115.362 308.331C115.362 319.802 106.039 329.125 94.5682 329.125H73.7744Z" fill="white" stroke="#006335" style="fill:white;fill-opacity:1;stroke:#006335;stroke:color(display-p3 0.0000 0.3882 0.2078);stroke-opacity:1;" stroke-width="1.12587" stroke-miterlimit="10"/>
</svg>
