<svg width="145" height="101" viewBox="0 0 145 101" fill="none" xmlns="http://www.w3.org/2000/svg">
<g clip-path="url(#clip0_75_8)">
<path d="M113.673 10.1159V73.0182H0.99646V10.1159H10.5438V0.562941H28.5634V10.1159H86.1065V0.562941H104.126V10.1159H113.673Z" fill="white" stroke="#231F20" style="fill:white;fill-opacity:1;stroke:#231F20;stroke:color(display-p3 0.1373 0.1216 0.1255);stroke-opacity:1;" stroke-width="1.12587" stroke-miterlimit="10"/>
<path d="M3.24817 71.0423V12.6435H12.7955V3.09051H26.3116V12.6435H88.3582V3.09051H101.874V12.6435H111.422V71.0423H3.24817Z" stroke="#016435" style="stroke:#016435;stroke:color(display-p3 0.0039 0.3922 0.2078);stroke-opacity:1;" stroke-width="3.37761" stroke-miterlimit="10"/>
<path d="M4.37402 69.9165V13.7694H13.9214V4.21638H25.1857V13.7694H89.4841V4.21638H100.748V13.7694H110.296V69.9165H4.37402Z" stroke="#084120" style="stroke:#084120;stroke:color(display-p3 0.0314 0.2549 0.1255);stroke-opacity:1;" stroke-width="2.25174" stroke-miterlimit="10"/>
<path d="M24.4314 94.2521H14.2085V95.378H24.4314V94.2521Z" fill="#231F20" style="fill:#231F20;fill:color(display-p3 0.1373 0.1216 0.1255);fill-opacity:1;"/>
<path d="M24.4314 83.5338H14.2085V84.6597H24.4314V83.5338Z" fill="#231F20" style="fill:#231F20;fill:color(display-p3 0.1373 0.1216 0.1255);fill-opacity:1;"/>
<path d="M102.197 49.9323C101.974 49.9323 101.766 49.8385 101.572 49.6508C99.6311 47.7333 97.4732 46.4433 95.0983 45.7806L95.1687 47.5046L95.2126 49.2374C95.2126 49.4954 95.1276 49.7095 94.9576 49.8795C94.7934 50.0554 94.5852 50.1434 94.3331 50.1434C94.0809 50.1434 93.8698 50.0554 93.6998 49.8795C93.5356 49.7095 93.4535 49.4954 93.4535 49.2374C93.4535 48.7742 93.43 48.0852 93.3831 47.1704C93.3421 46.2498 93.3215 45.5578 93.3215 45.0946C93.3215 44.5551 93.3802 43.7517 93.4975 42.6845C93.6147 41.6173 93.6734 40.8168 93.6734 40.2832C93.6734 39.9842 93.6441 39.5414 93.5854 38.9551C93.5326 38.3687 93.5062 37.9259 93.5062 37.6269C93.5062 37.2926 93.6001 36.9994 93.7877 36.7473C94.0105 36.4365 94.3184 36.2958 94.7113 36.3251L96.8311 36.4922C97.6344 36.5919 98.3117 36.7883 98.8629 37.0815C101.238 38.3423 102.425 39.8816 102.425 41.6994C102.425 42.5907 102.021 43.3794 101.211 44.0654C100.561 44.6167 99.7484 45.0359 98.775 45.3233C100.599 46.3025 101.962 47.3346 102.865 48.4194C103.017 48.607 103.094 48.8064 103.094 49.0175C103.094 49.2638 103.003 49.4778 102.821 49.6596C102.645 49.8414 102.437 49.9323 102.197 49.9323ZM96.5936 38.3042L95.2918 38.1986L95.3798 39.2629C95.4208 39.6968 95.4413 40.0516 95.4413 40.3272C95.4413 40.7963 95.4032 41.3798 95.327 42.0776L95.1423 43.828C95.2244 43.828 95.3504 43.8309 95.5205 43.8368C95.6964 43.8426 95.8284 43.8456 95.9163 43.8456C97.4116 43.8456 98.5316 43.6462 99.2763 43.2474C99.6047 43.0657 99.9096 42.8282 100.191 42.535C100.502 42.2066 100.657 41.9281 100.657 41.6994C100.657 40.8843 100.194 40.1249 99.2675 39.4212C98.4173 38.7762 97.5259 38.4039 96.5936 38.3042Z" fill="#231F20" style="fill:#231F20;fill:color(display-p3 0.1373 0.1216 0.1255);fill-opacity:1;"/>
<path d="M90.8411 37.9963C90.759 37.9963 90.6681 37.9817 90.5684 37.9523C89.5774 37.6709 88.6216 37.5301 87.701 37.5301C87.2201 37.5301 86.6953 37.5741 86.1265 37.6621C85.5577 37.75 84.9449 37.8849 84.2882 38.0667C84.341 38.4478 84.3673 38.7528 84.3673 38.9814C84.3673 39.7965 84.3175 40.9165 84.2178 42.3415L88.0704 41.972C89.2021 41.8548 89.897 41.7961 90.155 41.7961C90.413 41.7961 90.63 41.8782 90.8059 42.0424C90.9818 42.2066 91.0698 42.4265 91.0698 42.7021C91.0698 43.2357 90.8 43.5348 90.2606 43.5993L88.1672 43.784L84.1035 44.1534C84.08 44.5697 84.0595 44.9656 84.0419 45.3408C84.0302 45.7103 84.0243 46.0562 84.0243 46.3788C84.0243 47.6747 84.1181 48.437 84.3058 48.6657C84.4465 48.8299 84.9068 48.912 85.6867 48.912C86.0503 48.912 86.5956 48.9032 87.3227 48.8856C88.0557 48.8621 88.6069 48.8504 88.9764 48.8504C89.0936 48.8504 89.2666 48.8328 89.4953 48.7976C89.724 48.7566 89.8941 48.736 90.0055 48.736C90.6271 48.736 90.9378 49.041 90.9378 49.6508C90.9378 50.1434 90.6886 50.4395 90.1902 50.5392C89.639 50.6506 88.4457 50.7063 86.6103 50.7063C84.7925 50.7063 83.6256 50.4659 83.1095 49.9851C82.5466 49.4632 82.2651 48.2611 82.2651 46.3788C82.2651 46.0035 82.2739 45.593 82.2915 45.1473C82.3091 44.7017 82.3326 44.2208 82.3619 43.7048C82.2974 43.5699 82.2651 43.4263 82.2651 43.2738C82.2651 43.0744 82.3208 42.8956 82.4323 42.7373C82.5495 41.0426 82.6082 39.7907 82.6082 38.9814C82.6082 38.7645 82.5788 38.4478 82.5202 38.0315C82.4616 37.6093 82.4323 37.2897 82.4323 37.0727C82.4323 36.3749 82.7254 36.026 83.3118 36.026C83.5581 36.026 83.7692 36.1111 83.9451 36.2811C84.6488 36.0935 85.3114 35.9527 85.933 35.8589C86.5604 35.7651 87.1498 35.7182 87.701 35.7182C89.1259 35.7182 90.2635 35.8882 91.1138 36.2283C91.5066 36.3867 91.7031 36.6681 91.7031 37.0727C91.7031 37.3073 91.6268 37.5155 91.4744 37.6973C91.3043 37.8966 91.0932 37.9963 90.8411 37.9963Z" fill="#231F20" style="fill:#231F20;fill:color(display-p3 0.1373 0.1216 0.1255);fill-opacity:1;"/>
<path d="M77.4978 49.774C76.5889 50.3955 75.2841 50.7063 73.5836 50.7063C73.1555 50.7063 72.6659 50.6389 72.1147 50.504C71.4521 50.3457 70.9536 50.1405 70.6194 49.8883H70.5314C70.2793 49.8883 70.0682 49.8003 69.8981 49.6244C69.7281 49.4485 69.6431 49.2345 69.6431 48.9823C69.6431 48.3666 69.6695 47.446 69.7222 46.2204C69.7809 44.989 69.8102 44.0655 69.8102 43.4497C69.8102 42.7637 69.7955 41.7404 69.7662 40.38C69.7428 39.0137 69.731 37.9875 69.731 37.3014C69.731 37.061 69.8542 36.8089 70.1004 36.545C70.3467 36.2811 70.593 36.1492 70.8393 36.1492C70.98 36.1492 71.4491 36.3456 72.2466 36.7385C73.1497 37.1783 73.6716 37.4217 73.8123 37.4686C75.4776 38.0374 76.8967 38.9111 78.0695 40.0897C79.4475 41.4795 80.1365 43.007 80.1365 44.6724C80.1365 45.6751 79.899 46.6368 79.4241 47.5574C78.9549 48.478 78.3128 49.2169 77.4978 49.774ZM75.6506 40.4679C75.0525 40.0751 73.6716 39.4007 71.5078 38.4449L71.5518 40.9781L71.5782 43.5025L71.4374 48.3051C71.4785 48.3226 71.54 48.3608 71.6221 48.4194C72.1382 48.7654 72.789 48.9384 73.5748 48.9384C74.9118 48.9384 75.8852 48.7331 76.495 48.3226C77.0638 47.9356 77.5153 47.4167 77.8496 46.7658C78.1897 46.109 78.3598 45.4259 78.3598 44.7163C78.3598 43.0627 77.4567 41.6466 75.6506 40.4679Z" fill="#231F20" style="fill:#231F20;fill:color(display-p3 0.1373 0.1216 0.1255);fill-opacity:1;"/>
<path d="M67.1275 49.4749C66.4649 49.7857 65.424 50.0642 64.005 50.3105C62.6973 50.5392 61.6301 50.6535 60.8033 50.6535C60.211 50.6535 59.7859 50.5626 59.5279 50.3809C59.176 50.1346 59.0001 49.6831 59.0001 49.0263L59.176 46.1149C59.3285 43.4292 59.4047 40.4504 59.4047 37.1783C59.4047 36.9261 59.4868 36.7121 59.651 36.5362C59.8211 36.3603 60.0292 36.2723 60.2755 36.2723C60.5277 36.2723 60.7358 36.3603 60.9 36.5362C61.0701 36.7121 61.1551 36.9261 61.1551 37.1783C61.1551 40.4914 61.0759 43.5054 60.9176 46.2204L60.8033 47.5574C60.7564 48.0441 60.7388 48.4751 60.7505 48.8504C62.281 48.868 64.2161 48.5074 66.5558 47.7685C66.6554 47.7392 66.7493 47.7245 66.8372 47.7245C67.0894 47.7245 67.3005 47.8242 67.4705 48.0236C67.6171 48.2054 67.6904 48.4135 67.6904 48.6481C67.6904 49.0234 67.5028 49.299 67.1275 49.4749Z" fill="#231F20" style="fill:#231F20;fill:color(display-p3 0.1373 0.1216 0.1255);fill-opacity:1;"/>
<path d="M50.776 50.3721C49.1224 50.3721 47.7209 49.8766 46.5716 48.8856C45.3519 47.8301 44.7421 46.4696 44.7421 44.8043C44.7421 42.7754 45.3431 40.9312 46.5452 39.2717C47.888 37.4304 49.5622 36.5098 51.5676 36.5098C53.4969 36.5098 54.9306 36.9437 55.8688 37.8116C56.8481 38.7146 57.3377 40.1396 57.3377 42.0864C57.3377 44.1153 56.7865 45.9448 55.6841 47.575C54.4175 49.4397 52.7815 50.3721 50.776 50.3721ZM51.5676 38.313C50.131 38.313 48.9142 39.0284 47.9174 40.4591C46.9967 41.7727 46.5364 43.221 46.5364 44.8043C46.5364 45.936 46.9557 46.8567 47.7942 47.5662C48.5976 48.2347 49.5915 48.5689 50.776 48.5689C52.2009 48.5689 53.3767 47.8506 54.3032 46.4139C55.13 45.1297 55.5434 43.6872 55.5434 42.0864C55.5434 40.6849 55.2297 39.6998 54.6022 39.131C54.0041 38.5856 52.9926 38.313 51.5676 38.313Z" fill="#231F20" style="fill:#231F20;fill:color(display-p3 0.1373 0.1216 0.1255);fill-opacity:1;"/>
<path d="M42.6838 37.4422C42.5958 37.6885 42.5518 38.0491 42.5518 38.5241C42.5518 38.7 42.5577 38.9609 42.5694 39.3069C42.5812 39.6529 42.587 39.9138 42.587 40.0897C42.587 40.6761 42.5342 41.5498 42.4287 42.7109C42.329 43.8719 42.2792 44.7457 42.2792 45.3321C42.2792 45.7777 42.3114 46.4462 42.3759 47.3375C42.4404 48.2288 42.4727 48.9002 42.4727 49.3518C42.4727 49.5922 42.3906 49.7945 42.2264 49.9587C42.0681 50.1229 41.8687 50.205 41.6283 50.205C41.3937 50.205 41.1943 50.1229 41.0302 49.9587C40.866 49.7945 40.7839 49.5922 40.7839 49.3518C40.7839 48.9002 40.7516 48.2288 40.6871 47.3375C40.6226 46.4462 40.5904 45.7777 40.5904 45.3321C40.5904 44.904 40.605 44.4701 40.6343 44.0303C39.6316 44.0479 38.3914 44.1974 36.9137 44.4789L33.2194 45.2001C33.2194 45.7279 33.1667 46.4784 33.0611 47.4519C32.9556 48.4194 32.9028 49.17 32.9028 49.7036C32.9028 49.944 32.8207 50.1463 32.6565 50.3105C32.4982 50.4806 32.2988 50.5656 32.0584 50.5656C31.818 50.5656 31.6157 50.4806 31.4515 50.3105C31.2932 50.1463 31.214 49.944 31.214 49.7036C31.214 49.082 31.2638 48.1555 31.3635 46.9241C31.4691 45.6868 31.5218 44.7574 31.5218 44.1358C31.5218 43.8133 31.5101 43.3266 31.4867 42.6757C31.4632 42.0248 31.4515 41.5352 31.4515 41.2068C31.4515 40.7435 31.4808 40.0487 31.5394 39.1222C31.5981 38.1898 31.6274 37.492 31.6274 37.0288C31.6274 36.7825 31.7066 36.5772 31.8649 36.4131C32.0291 36.2489 32.2314 36.1668 32.4718 36.1668C32.7122 36.1668 32.9116 36.2489 33.0699 36.4131C33.2341 36.5772 33.3162 36.7825 33.3162 37.0288C33.3162 37.4979 33.2839 38.2015 33.2194 39.1398C33.1608 40.0721 33.1315 40.7729 33.1315 41.242L33.1843 43.4673L36.9577 42.7549C38.4647 42.4734 39.7342 42.3268 40.7663 42.3151C40.8308 41.4765 40.863 40.2129 40.863 38.5241C40.863 38.0784 40.9363 37.6269 41.0829 37.1695C41.2764 36.5421 41.5491 36.2283 41.9009 36.2283C42.1238 36.2283 42.3231 36.3104 42.4991 36.4746C42.675 36.633 42.7629 36.8353 42.7629 37.0815C42.7629 37.1695 42.7366 37.2897 42.6838 37.4422Z" fill="#231F20" style="fill:#231F20;fill:color(display-p3 0.1373 0.1216 0.1255);fill-opacity:1;"/>
<path d="M28.3378 45.6575C27.5403 45.7396 26.1213 45.7806 24.0806 45.7806C23.5881 45.7806 23.3418 45.5519 23.3418 45.0946C23.3418 44.6372 23.5881 44.4085 24.0806 44.4085C24.5439 44.4085 25.2388 44.388 26.1653 44.3469C27.0918 44.3059 27.7866 44.2853 28.2499 44.2853C28.7718 44.2853 29.0327 44.514 29.0327 44.9714C29.0327 45.376 28.8011 45.6047 28.3378 45.6575Z" fill="#231F20" style="fill:#231F20;fill:color(display-p3 0.1373 0.1216 0.1255);fill-opacity:1;"/>
<path d="M20.9141 37.9963C20.832 37.9963 20.7411 37.9817 20.6414 37.9523C19.6504 37.6709 18.6946 37.5301 17.774 37.5301C17.2931 37.5301 16.7683 37.5741 16.1995 37.6621C15.6307 37.75 15.0179 37.8849 14.3612 38.0667C14.414 38.4478 14.4403 38.7528 14.4403 38.9814C14.4403 39.7965 14.3905 40.9165 14.2908 42.3415L18.1434 41.972C19.2751 41.8548 19.97 41.7961 20.228 41.7961C20.486 41.7961 20.703 41.8782 20.8789 42.0424C21.0548 42.2066 21.1428 42.4265 21.1428 42.7021C21.1428 43.2357 20.873 43.5348 20.3336 43.5993L18.2402 43.784L14.1765 44.1534C14.153 44.5697 14.1325 44.9656 14.1149 45.3408C14.1032 45.7103 14.0973 46.0562 14.0973 46.3788C14.0973 47.6747 14.1911 48.437 14.3788 48.6657C14.5195 48.8299 14.9798 48.912 15.7597 48.912C16.1233 48.912 16.6686 48.9032 17.3957 48.8856C18.1287 48.8621 18.6799 48.8504 19.0494 48.8504C19.1666 48.8504 19.3396 48.8328 19.5683 48.7976C19.797 48.7566 19.9671 48.736 20.0785 48.736C20.7001 48.736 21.0108 49.041 21.0108 49.6508C21.0108 50.1434 20.7616 50.4395 20.2632 50.5392C19.712 50.6506 18.5187 50.7063 16.6833 50.7063C14.8655 50.7063 13.6986 50.4659 13.1825 49.9851C12.6196 49.4632 12.3381 48.2611 12.3381 46.3788C12.3381 46.0035 12.3469 45.593 12.3645 45.1473C12.3821 44.7017 12.4056 44.2208 12.4349 43.7048C12.3704 43.5699 12.3381 43.4263 12.3381 43.2738C12.3381 43.0744 12.3938 42.8956 12.5053 42.7373C12.6225 41.0426 12.6812 39.7907 12.6812 38.9814C12.6812 38.7645 12.6519 38.4478 12.5932 38.0315C12.5346 37.6093 12.5053 37.2897 12.5053 37.0727C12.5053 36.3749 12.7985 36.026 13.3848 36.026C13.6311 36.026 13.8422 36.1111 14.0181 36.2811C14.7218 36.0935 15.3844 35.9527 16.006 35.8589C16.6334 35.7651 17.2228 35.7182 17.774 35.7182C19.1989 35.7182 20.3365 35.8882 21.1868 36.2283C21.5796 36.3867 21.7761 36.6681 21.7761 37.0727C21.7761 37.3073 21.6999 37.5155 21.5474 37.6973C21.3773 37.8966 21.1662 37.9963 20.9141 37.9963Z" fill="#231F20" style="fill:#231F20;fill:color(display-p3 0.1373 0.1216 0.1255);fill-opacity:1;"/>
<path d="M144.229 58.8041C144.229 77.7244 128.833 93.1206 109.913 93.1206H42.6423C43.1377 91.9947 43.4079 90.7563 43.4079 89.4559C43.4079 88.1555 43.1433 86.9565 42.6705 85.8475C42.6649 85.8306 42.6592 85.8194 42.648 85.8025H109.913C124.803 85.8025 136.911 73.6938 136.911 58.8041C136.911 45.1924 126.79 33.8999 113.673 32.0704V24.6959C130.832 26.5705 144.229 41.1505 144.229 58.8041Z" fill="#231F20" style="fill:#231F20;fill:color(display-p3 0.1373 0.1216 0.1255);fill-opacity:1;"/>
<path d="M44.9166 91.4318C45.0348 90.7844 45.0968 90.1258 45.0968 89.4559C45.0968 88.786 45.0348 88.1386 44.9166 87.4913H109.913C125.731 87.4913 138.6 74.6226 138.6 58.8041C138.6 45.0685 128.709 33.2131 115.362 30.6405V26.6324C130.984 29.2501 142.541 42.7605 142.541 58.8041C142.541 76.7955 127.904 91.4318 109.913 91.4318H44.9166Z" fill="#016435" stroke="#00411D" style="fill:#016435;fill:color(display-p3 0.0039 0.3922 0.2078);fill-opacity:1;stroke:#00411D;stroke:color(display-p3 0.0000 0.2549 0.1137);stroke-opacity:1;" stroke-width="1.12587" stroke-miterlimit="10"/>
<path d="M24.4314 79.6834H34.2039C39.5969 79.6834 43.9765 84.063 43.9765 89.4559C43.9765 94.8488 39.5969 99.2285 34.2039 99.2285H24.4314V79.6834Z" fill="white" stroke="#231F20" style="fill:white;fill-opacity:1;stroke:#231F20;stroke:color(display-p3 0.1373 0.1216 0.1255);stroke-opacity:1;" stroke-width="1.12587" stroke-miterlimit="10"/>
<path d="M25.5573 98.1082V80.8149H34.2039C38.972 80.8149 42.8506 84.6935 42.8506 89.4615C42.8506 94.2296 38.972 98.1082 34.2039 98.1082H25.5573Z" fill="white" stroke="#084120" style="fill:white;fill-opacity:1;stroke:#084120;stroke:color(display-p3 0.0314 0.2549 0.1255);stroke-opacity:1;" stroke-width="1.12587" stroke-miterlimit="10"/>
<path d="M26.6831 96.9767V81.9351H34.2039C38.3527 81.9351 41.7247 85.3071 41.7247 89.4559C41.7247 93.6047 38.3527 96.9767 34.2039 96.9767H26.6831Z" fill="white" stroke="#006335" style="fill:white;fill-opacity:1;stroke:#006335;stroke:color(display-p3 0.0000 0.3882 0.2078);stroke-opacity:1;" stroke-width="1.12587" stroke-miterlimit="10"/>
</g>
<defs>
<clipPath id="clip0_75_8">
<rect width="144.674" height="100.202" fill="white" style="fill:white;fill-opacity:1;"/>
</clipPath>
</defs>
</svg>
