<?xml version="1.0" encoding="UTF-8"?>

<svg version="1.1" xmlns="http://www.w3.org/2000/svg" xmlns:xlink="http://www.w3.org/1999/xlink">

    <symbol viewBox="0 0 14 7" id="dropdown-arrow" xmlns="http://www.w3.org/2000/svg">
        <path d="M13.023 1.14797L7.39798 6.77297C7.34573 6.82527 7.2837 6.86676 7.21541 6.89506C7.14712 6.92337 7.07393 6.93794 7.00001 6.93794C6.92609 6.93794 6.85289 6.92337 6.7846 6.89506C6.71632 6.86676 6.65428 6.82527 6.60204 6.77297L0.977039 1.14797C0.871491 1.04242 0.812195 0.899267 0.812195 0.75C0.812195 0.600733 0.871491 0.457579 0.977039 0.352031C1.08259 0.246483 1.22574 0.187187 1.37501 0.187187C1.52427 0.187187 1.66743 0.246483 1.77298 0.352031L7.00001 5.57977L12.227 0.352031C12.2793 0.299769 12.3413 0.258312 12.4096 0.230029C12.4779 0.201745 12.5511 0.187187 12.625 0.187187C12.6989 0.187187 12.7721 0.201745 12.8404 0.230029C12.9087 0.258312 12.9707 0.299769 13.023 0.352031C13.0752 0.404293 13.1167 0.466337 13.145 0.534621C13.1733 0.602904 13.1878 0.67609 13.1878 0.75C13.1878 0.823909 13.1733 0.897096 13.145 0.965379C13.1167 1.03366 13.0752 1.09571 13.023 1.14797Z" fill="currentColor"/>
    </symbol>

    <symbol viewBox="0 0 19 11" id="up-arrow" xmlns="http://www.w3.org/2000/svg">
        <path d="M18.5345 9.27807L10.097 0.840567C10.0186 0.762118 9.92555 0.699883 9.82312 0.657423C9.72069 0.614962 9.61089 0.593107 9.50001 0.593107C9.38913 0.593107 9.27933 0.614962 9.1769 0.657423C9.07448 0.699883 8.98142 0.762118 8.90306 0.840567L0.465558 9.27807C0.307236 9.43639 0.218292 9.65112 0.218292 9.87502C0.218292 10.0989 0.307236 10.3137 0.465558 10.472C0.62388 10.6303 0.83861 10.7192 1.06251 10.7192C1.28641 10.7192 1.50114 10.6303 1.65946 10.472L9.50001 2.63037L17.3406 10.472C17.419 10.5504 17.512 10.6126 17.6144 10.655C17.7169 10.6974 17.8266 10.7192 17.9375 10.7192C18.0484 10.7192 18.1582 10.6974 18.2606 10.655C18.363 10.6126 18.4561 10.5504 18.5345 10.472C18.6129 10.3936 18.675 10.3005 18.7175 10.1981C18.7599 10.0957 18.7817 9.98588 18.7817 9.87502C18.7817 9.76415 18.7599 9.65438 18.7175 9.55195C18.675 9.44953 18.6129 9.35646 18.5345 9.27807Z" fill="currentColor"/>
    </symbol>

    <symbol viewBox="0 0 20 16" id="email" xmlns="http://www.w3.org/2000/svg">
        <path d="M18.2422 0.96875H1.75781C0.786602 0.96875 0 1.76023 0 2.72656V13.2734C0 14.2455 0.792383 15.0312 1.75781 15.0312H18.2422C19.2053 15.0312 20 14.2488 20 13.2734V2.72656C20 1.76195 19.2165 0.96875 18.2422 0.96875ZM17.996 2.14062C17.6369 2.49785 11.4564 8.64582 11.243 8.85809C10.9109 9.19012 10.4695 9.37293 10 9.37293C9.53047 9.37293 9.08906 9.19008 8.75594 8.85699C8.61242 8.71422 2.50012 2.63414 2.00398 2.14062H17.996ZM1.17188 13.0349V2.96582L6.23586 8.00312L1.17188 13.0349ZM2.00473 13.8594L7.06672 8.82957L7.9284 9.68672C8.48176 10.2401 9.21746 10.5448 10 10.5448C10.7825 10.5448 11.5182 10.2401 12.0705 9.68781L12.9333 8.82957L17.9953 13.8594H2.00473ZM18.8281 13.0349L13.7641 8.00312L18.8281 2.96582V13.0349Z" fill="currentColor"/>
    </symbol>

    <symbol viewBox="0 0 20 20" id="phone" xmlns="http://www.w3.org/2000/svg">
        <path d="M19.037 13.4458L14.326 11.3348L14.313 11.3288C14.0684 11.2242 13.8016 11.1822 13.5368 11.2067C13.2719 11.2311 13.0173 11.3212 12.796 11.4688C12.7699 11.486 12.7449 11.5047 12.721 11.5248L10.287 13.5998C8.74501 12.8508 7.15301 11.2708 6.40401 9.74879L8.48201 7.27779C8.50201 7.25279 8.52101 7.22779 8.53901 7.20079C8.68343 6.9801 8.77106 6.72712 8.79409 6.46437C8.81712 6.20162 8.77484 5.93725 8.67101 5.69479V5.6828L6.55401 0.963797C6.41675 0.647062 6.18073 0.383212 5.88119 0.211636C5.58166 0.0400595 5.23466 -0.0300414 4.89201 0.0117976C3.53698 0.190104 2.29319 0.855566 1.39294 1.88389C0.492696 2.91222 -0.00244093 4.23309 9.04864e-06 5.59979C9.04864e-06 13.5398 6.46001 19.9998 14.4 19.9998C15.7667 20.0022 17.0876 19.5071 18.1159 18.6069C19.1442 17.7066 19.8097 16.4628 19.988 15.1078C20.0299 14.7653 19.96 14.4183 19.7886 14.1188C19.6172 13.8193 19.3535 13.5832 19.037 13.4458ZM14.4 18.3998C11.0064 18.3961 7.75279 17.0463 5.35313 14.6467C2.95347 12.247 1.60371 8.99343 1.60001 5.59979C1.59625 4.62328 1.94806 3.67879 2.58974 2.9427C3.23143 2.20661 4.11911 1.72926 5.08701 1.5998C5.08661 1.60379 5.08661 1.60781 5.08701 1.6118L7.18701 6.31179L5.12001 8.78579C5.09903 8.80993 5.07997 8.83568 5.06301 8.86279C4.91252 9.09371 4.82424 9.35959 4.80672 9.63465C4.7892 9.90972 4.84304 10.1846 4.96301 10.4328C5.86901 12.2858 7.73601 14.1388 9.609 15.0438C9.85897 15.1626 10.1355 15.2146 10.4115 15.1946C10.6876 15.1747 10.9538 15.0834 11.184 14.9298C11.2097 14.9125 11.2344 14.8938 11.258 14.8738L13.689 12.7998L18.389 14.9048C18.389 14.9048 18.397 14.9048 18.4 14.9048C18.2721 15.8741 17.7955 16.7635 17.0593 17.4068C16.323 18.0501 15.3777 18.4031 14.4 18.3998Z" fill="currentColor"/>
    </symbol>

    <symbol viewBox="0 0 20 20" id="time" xmlns="http://www.w3.org/2000/svg">
        <path fill-rule="evenodd" clip-rule="evenodd" d="M0 10C0 4.48566 4.48566 0 10 0C15.5143 0 20 4.48566 20 10C20 15.5143 15.5143 20 10 20C4.48566 20 0 15.5143 0 10ZM1.54918 10C1.54918 14.6592 5.34082 18.4508 10 18.4508C14.6592 18.4508 18.4508 14.6592 18.4508 10C18.4508 5.34082 14.66 1.54918 10 1.54918C5.34082 1.54918 1.54918 5.34082 1.54918 10ZM10.7753 9.67352L13.5638 11.7649C13.9062 12.0213 13.976 12.507 13.7187 12.8486C13.5669 13.0531 13.3345 13.1593 13.0983 13.1593C12.9364 13.1593 12.7737 13.1089 12.6343 13.0043L9.53592 10.6805C9.34072 10.5349 9.22607 10.3048 9.22607 10.0609V5.41328C9.22607 4.98492 9.57232 4.63867 10.0007 4.63867C10.429 4.63867 10.7753 4.98492 10.7753 5.41328V9.67352Z" fill="currentColor"/>
    </symbol>

    <symbol viewBox="0 0 16 20" id="location" xmlns="http://www.w3.org/2000/svg">
        <path d="M8 4.5C7.32013 4.5 6.65552 4.70161 6.09023 5.07932C5.52493 5.45704 5.08434 5.9939 4.82416 6.62203C4.56399 7.25015 4.49591 7.94131 4.62855 8.60812C4.76119 9.27493 5.08858 9.88744 5.56932 10.3682C6.05006 10.8489 6.66257 11.1763 7.32938 11.3089C7.99619 11.4416 8.68735 11.3735 9.31547 11.1133C9.9436 10.8532 10.4805 10.4126 10.8582 9.84727C11.2359 9.28198 11.4375 8.61737 11.4375 7.9375C11.4375 7.02582 11.0753 6.15148 10.4307 5.50682C9.78602 4.86216 8.91168 4.5 8 4.5ZM8 10C7.59208 10 7.19331 9.87904 6.85414 9.65241C6.51496 9.42578 6.2506 9.10366 6.0945 8.72678C5.93839 8.34991 5.89755 7.93521 5.97713 7.53513C6.05671 7.13504 6.25315 6.76754 6.54159 6.47909C6.83004 6.19065 7.19754 5.99421 7.59763 5.91463C7.99771 5.83505 8.41241 5.87589 8.78928 6.032C9.16616 6.1881 9.48828 6.45246 9.71491 6.79164C9.94154 7.13081 10.0625 7.52958 10.0625 7.9375C10.0625 8.48451 9.8452 9.00911 9.45841 9.39591C9.07161 9.7827 8.54701 10 8 10ZM8 0.375C5.995 0.377275 4.07277 1.17477 2.65502 2.59252C1.23727 4.01027 0.439775 5.9325 0.4375 7.9375C0.4375 10.6359 1.68445 13.4959 4.04688 16.209C5.10839 17.4349 6.30312 18.5389 7.60898 19.5004C7.72458 19.5814 7.8623 19.6248 8.00344 19.6248C8.14458 19.6248 8.28229 19.5814 8.39789 19.5004C9.70135 18.5385 10.8938 17.4346 11.9531 16.209C14.3121 13.4959 15.5625 10.6359 15.5625 7.9375C15.5602 5.9325 14.7627 4.01027 13.345 2.59252C11.9272 1.17477 10.005 0.377275 8 0.375ZM8 18.0781C6.57945 16.9609 1.8125 12.8574 1.8125 7.9375C1.8125 6.29647 2.4644 4.72266 3.62478 3.56228C4.78516 2.4019 6.35897 1.75 8 1.75C9.64103 1.75 11.2148 2.4019 12.3752 3.56228C13.5356 4.72266 14.1875 6.29647 14.1875 7.9375C14.1875 12.8557 9.42055 16.9609 8 18.0781Z" fill="currentColor"/>
    </symbol>

    <symbol viewBox="0 0 12 22" id="facebook" xmlns="http://www.w3.org/2000/svg">
        <path d="M9.66389 3.65292H11.6723V0.154917C11.3258 0.10725 10.1341 0 8.7463 0C5.85055 0 3.86689 1.82142 3.86689 5.16908V8.25H0.671387V12.1605H3.86689V22H7.78472V12.1614H10.851L11.3377 8.25092H7.7838V5.55683C7.78472 4.42658 8.08905 3.65292 9.66389 3.65292Z" fill="currentColor"/>
    </symbol>

    <symbol viewBox="0 0 22 22" id="instagram" xmlns="http://www.w3.org/2000/svg">
        <path fill-rule="evenodd" clip-rule="evenodd" d="M15.535 0.0715458C13.511 -0.0228708 8.49777 -0.0182875 6.47193 0.0715458C4.69177 0.154963 3.12152 0.584879 1.8556 1.8508C-0.0375962 3.744 -0.0201325 6.22589 0.00447229 9.72275V9.72297C0.00736383 10.1338 0.0103545 10.5587 0.0103545 10.9982C0.0103545 11.409 0.00814965 11.806 0.00602105 12.19V12.1919C-0.0140137 15.8063 -0.0276246 18.2624 1.8556 20.1456C3.75227 22.0415 6.26152 22.0228 9.7189 21.9971C10.1331 21.9941 10.561 21.9909 11.003 21.9909H11.0626H11.0627C15.2555 21.9909 16.7117 21.9909 18.2034 21.4134C20.2412 20.6223 21.7794 18.8009 21.9297 15.5293C22.025 13.5044 22.0195 8.49205 21.9297 6.46621C21.7482 2.6043 19.6756 0.262213 15.535 0.0715458ZM18.7388 18.7459C17.4615 20.0232 15.7286 20.0192 11.9857 20.0106C11.6644 20.0098 11.3283 20.0091 10.9764 20.0091C10.7606 20.0091 10.5508 20.0092 10.3469 20.0093C6.22108 20.0123 4.49202 20.0135 3.2141 18.7321C1.88463 17.409 1.90661 15.3958 1.93852 12.474C1.94368 12.0013 1.94911 11.5048 1.94911 10.9835C1.94911 10.5419 1.94515 10.111 1.9413 9.69224V9.69119C1.90106 5.3081 1.87297 2.24883 6.51227 2.01121L6.56488 2.00935C7.69113 1.96955 8.06847 1.95621 10.9636 1.95621L11.0049 1.98371C11.4234 1.98371 11.8343 1.97996 12.2358 1.97629C16.5201 1.93712 19.7421 1.90767 19.9524 6.55421C20.0047 7.7138 20.0166 8.06213 20.0166 10.9973C20.0165 11.2612 20.0168 11.5161 20.017 11.7622C20.0208 15.7413 20.0224 17.4562 18.7388 18.7459ZM11.0037 5.35162C7.88426 5.35162 5.35884 7.87978 5.35884 10.9965C5.35884 14.1159 7.88701 16.6413 11.0037 16.6413C14.1231 16.6413 16.6485 14.1131 16.6485 10.9965C16.6485 7.87703 14.1203 5.35162 11.0037 5.35162ZM11.0037 14.6604C8.97875 14.6604 7.33975 13.0205 7.33975 10.9965C7.33975 8.97245 8.97968 7.33253 11.0037 7.33253C13.0277 7.33253 14.6676 8.97245 14.6676 10.9965C14.6685 13.0205 13.0286 14.6604 11.0037 14.6604ZM18.1912 5.12886C18.1912 5.85737 17.6007 6.44795 16.8722 6.44795C16.1436 6.44795 15.5531 5.85737 15.5531 5.12886C15.5531 4.40035 16.1436 3.80978 16.8722 3.80978C17.6007 3.80978 18.1912 4.40035 18.1912 5.12886Z" fill="currentColor"/>
    </symbol>

    <symbol viewBox="0 0 22 16" id="youtube" xmlns="http://www.w3.org/2000/svg">
        <path d="M20.8768 2.84508C20.6391 1.9615 19.9424 1.26498 19.059 1.02705C17.445 0.585449 10.989 0.585449 10.989 0.585449C10.989 0.585449 4.53324 0.585449 2.91927 1.01031C2.05281 1.24798 1.33916 1.96162 1.10149 2.84508C0.676758 4.45893 0.676758 7.80583 0.676758 7.80583C0.676758 7.80583 0.676758 11.1696 1.10149 12.7666C1.33942 13.65 2.03581 14.3466 2.9194 14.5845C4.55024 15.0262 10.9893 15.0262 10.9893 15.0262C10.9893 15.0262 17.445 15.0262 19.059 14.6014C19.9426 14.3636 20.6391 13.667 20.877 12.7836C21.3016 11.1696 21.3016 7.82283 21.3016 7.82283C21.3016 7.82283 21.3186 4.45893 20.8768 2.84508ZM8.93355 10.8978V4.71385L14.302 7.80583L8.93355 10.8978Z" fill="currentColor"/>
    </symbol>

    <symbol viewBox="0 0 54 60" id="about-1" xmlns="http://www.w3.org/2000/svg">
        <path fill-rule="evenodd" clip-rule="evenodd" d="M53.4897 9.83337C53.4897 10.3191 53.096 10.713 52.6101 10.713H51.5044V13.147H52.6101C53.096 13.147 53.4897 13.5408 53.4897 14.0266C53.4897 14.5123 53.096 14.9061 52.6101 14.9061H51.5044V14.9459C51.5044 16.4542 50.2773 17.6813 48.769 17.6813H48.7294V18.7869C48.7294 19.2727 48.3357 19.6665 47.8498 19.6665C47.3639 19.6665 46.9702 19.2727 46.9702 18.7869V17.6813H44.536V18.7869C44.536 19.2727 44.1423 19.6665 43.6564 19.6665C43.1705 19.6665 42.7768 19.2727 42.7768 18.7869V17.6813H40.3425V18.7869C40.3425 19.2727 39.9488 19.6665 39.4629 19.6665C38.9771 19.6665 38.5833 19.2727 38.5833 18.7869V17.6813H38.5436C37.0353 17.6813 35.8082 16.4542 35.8082 14.9459V14.9063H34.7026C34.2167 14.9063 33.823 14.5124 33.823 14.0267C33.823 13.5409 34.2167 13.1471 34.7026 13.1471H35.8082V10.7128H34.7026C34.2167 10.7128 33.823 10.319 33.823 9.83325C33.823 9.34748 34.2167 8.95366 34.7026 8.95366H35.8082V6.51953H34.7026C34.2167 6.51953 33.823 6.12571 33.823 5.63994C33.823 5.15417 34.2167 4.76035 34.7026 4.76035H35.8082V4.72059C35.8082 3.21227 37.0353 1.98518 38.5436 1.98518H38.5833V0.879592C38.5833 0.393823 38.9771 0 39.4629 0C39.9488 0 40.3425 0.393823 40.3425 0.879592V1.98518H42.7768V0.879592C42.7768 0.393823 43.1705 0 43.6564 0C44.1423 0 44.536 0.393823 44.536 0.879592V1.98518H46.9701V0.879592C46.9701 0.393823 47.3638 0 47.8497 0C48.3356 0 48.7293 0.393823 48.7293 0.879592V1.9853H48.769C50.2773 1.9853 51.5044 3.21239 51.5044 4.72071V4.76035H52.6101C53.096 4.76035 53.4897 5.15417 53.4897 5.63994C53.4897 6.12571 53.096 6.51953 52.6101 6.51953H51.5044V8.95377H52.6101C53.096 8.95377 53.4897 9.3476 53.4897 9.83337ZM48.769 15.9223C49.3073 15.9223 49.7453 15.4843 49.7453 14.946V4.72059C49.7453 4.18228 49.3073 3.74436 48.769 3.74436H38.5437C38.0054 3.74436 37.5675 4.18228 37.5675 4.72059V14.946C37.5675 15.4843 38.0054 15.9223 38.5437 15.9223H48.769ZM8.3645 5.45384H10.4326C11.3487 5.45384 12.0939 4.70865 12.0939 3.79247V1.72449C12.0939 0.808423 11.3487 0.0632324 10.4326 0.0632324H8.3645C7.44844 0.0632324 6.70325 0.808423 6.70325 1.72449V3.79258C6.70325 4.70865 7.44855 5.45384 8.3645 5.45384ZM8.46243 1.82242H10.3347V3.69466H8.46243V1.82242ZM23.2516 7.12467C23.3228 7.12467 23.3954 7.11587 23.4676 7.0977C24.9041 6.73495 26.3912 6.54977 27.8779 6.55598C28.7926 6.5581 29.7118 6.62987 30.6095 6.76943C31.0905 6.84402 31.5392 6.51541 31.6138 6.03538C31.6884 5.55536 31.3598 5.10571 30.8797 5.03112C29.8941 4.87784 28.8854 4.79903 27.8817 4.7968C26.2424 4.78988 24.6153 4.99348 23.0368 5.39199C22.5658 5.51091 22.2805 5.98918 22.3993 6.46017C22.5 6.85892 22.8582 7.12467 23.2516 7.12467ZM13.3228 14.0048C11.1111 17.0666 9.94205 20.6788 9.94205 24.451C9.94205 28.7566 11.4948 32.9179 14.3144 36.1682C14.6327 36.5351 14.5933 37.0907 14.2264 37.409C14.0599 37.5532 13.8547 37.6241 13.6504 37.6241C13.4042 37.6241 13.1595 37.5215 12.9856 37.3209C9.88857 33.7508 8.18298 29.1801 8.18298 24.451C8.18287 20.3067 9.46707 16.3382 11.8969 12.9747C12.1813 12.5809 12.7312 12.4923 13.1249 12.7768C13.5187 13.0612 13.6074 13.6111 13.3228 14.0048ZM19.2557 16.4776V14.6781C19.2557 13.762 20.0009 13.0168 20.9169 13.0168H22.7165C23.6325 13.0168 24.3777 13.762 24.3777 14.6781V16.4776C24.3777 17.3937 23.6325 18.1389 22.7165 18.1389H20.9169C20.0009 18.1389 19.2557 17.3937 19.2557 16.4776ZM22.6185 14.776H21.0149V16.3797H22.6185V14.776ZM17.2083 20.5178C16.2922 20.5178 15.5471 21.263 15.5471 22.1791V25.1439C15.5471 26.06 16.2922 26.8053 17.2083 26.8053H20.1731C21.0892 26.8053 21.8344 26.0601 21.8344 25.1439V22.1791C21.8344 21.263 21.0892 20.5178 20.1731 20.5178H17.2083ZM20.0752 25.0461H17.3062V22.2771H20.0752V25.0461ZM28.0079 23.4204V25.8565C28.0079 26.7726 28.7531 27.5178 29.6692 27.5178H30.0078V32.3492L28.1278 34.2292C27.9629 34.3942 27.8702 34.6178 27.8702 34.8511V36.801C27.8702 37.2868 28.2639 37.6806 28.7498 37.6806C29.2357 37.6806 29.6294 37.2868 29.6294 36.801V35.2154L31.5094 33.3354C31.6743 33.1704 31.7669 32.9467 31.7669 32.7135V27.5178H32.1054C33.0215 27.5178 33.7667 26.7726 33.7667 25.8565V23.4204C33.7667 22.5043 33.0215 21.759 32.1054 21.759H29.6692C28.7532 21.759 28.0079 22.5043 28.0079 23.4204ZM29.7671 23.5182H32.0075V25.7586H29.7671V23.5182ZM5.63241 31.9049C5.63241 30.9888 4.88722 30.2437 3.97104 30.2437H2.17151C1.25544 30.2437 0.510254 30.9888 0.510254 31.9049V33.7044C0.510254 34.6205 1.25544 35.3657 2.17151 35.3657H3.97104C4.8871 35.3657 5.63241 34.6205 5.63241 33.7044V31.9049ZM3.87323 33.6065H2.26944V32.0028H3.87311L3.87323 33.6065ZM7.01062 38.7317H9.95983C10.8758 38.7317 11.6211 39.477 11.6211 40.3929V43.342C11.6211 44.2582 10.8759 45.0034 9.95983 45.0034H7.01062C6.09456 45.0034 5.34937 44.2581 5.34937 43.342V40.3929C5.34937 39.4769 6.09456 38.7317 7.01062 38.7317ZM7.10855 43.2442H9.86191V40.4909H7.10855V43.2442ZM47.491 24.4508C47.491 23.6457 47.4411 22.8312 47.3426 22.03C47.2832 21.5479 46.843 21.2053 46.3622 21.2644C45.8801 21.3237 45.5373 21.7626 45.5965 22.2448C45.6864 22.975 45.7319 23.7172 45.7319 24.4508C45.7319 29.4096 43.7495 34.0208 40.1498 37.4349C37.6587 39.7976 35.6571 42.7457 34.3314 45.9901H33.3315V41.0656L37.2697 37.1274C37.4346 36.9625 37.5273 36.7387 37.5273 36.5054V34.2892C38.3325 34.2802 38.9852 33.6231 38.9852 32.8156V30.8932C38.9852 30.0802 38.3237 29.4188 37.5108 29.4188H35.5883C34.7753 29.4188 34.114 30.0803 34.114 30.8932V32.8156C34.114 33.6286 34.7754 34.29 35.5883 34.29H35.7681V36.141L31.8299 40.0793C31.665 40.2442 31.5723 40.4679 31.5723 40.7012V45.9901H29.6293V40.5493C29.6293 40.0635 29.2356 39.6697 28.7498 39.6697C28.2639 39.6697 27.8702 40.0635 27.8702 40.5493V45.9901H24.9602V35.0555H25.2987C26.2148 35.0555 26.96 34.3103 26.96 33.3942V30.9581C26.96 30.0421 26.2148 29.2969 25.2987 29.2969H22.8626C21.9465 29.2969 21.2012 30.0421 21.2012 30.9581V33.3942C21.2012 34.3103 21.9464 35.0555 22.8626 35.0555H23.2011V45.9901H21.3382C20.2802 43.4264 18.792 41.0419 16.906 38.896C16.5852 38.5311 16.0296 38.4953 15.6647 38.8161C15.2999 39.1368 15.264 39.6925 15.5847 40.0573C17.2476 41.9494 18.5784 44.0378 19.5503 46.2766C18.5236 46.7601 17.811 47.8042 17.811 49.0122C17.811 50.6293 19.0877 51.9536 20.6861 52.0306V53.2849C20.6861 54.398 21.4015 55.3466 22.3965 55.6967C22.7535 58.1275 24.8522 59.9999 27.3806 59.9999H28.2932C30.8216 59.9999 32.9203 58.1275 33.2773 55.6967C34.2723 55.3466 34.9877 54.3981 34.9877 53.2849V52.0306C36.5861 51.9536 37.8628 50.6293 37.8628 49.0122C37.8628 47.8027 37.1483 46.7574 36.1194 46.2748C37.3497 43.4105 39.1471 40.8104 41.3604 38.7111C45.3139 34.9616 47.491 29.8971 47.491 24.4508ZM35.8733 31.1783H37.2261V32.5311H35.8733V31.1783ZM22.9606 31.0562H25.201V33.2966H22.9606V31.0562ZM28.2933 58.2408H27.3808C25.8772 58.2408 24.6068 57.2237 24.2215 55.8413H31.4527C31.0672 57.2237 29.7968 58.2408 28.2933 58.2408ZM34.8408 50.2753H31.9406C31.4547 50.2753 31.061 50.6691 31.061 51.1548C31.061 51.6406 31.4547 52.0344 31.9406 52.0344H33.2285V53.285C33.2285 53.7245 32.8708 54.0821 32.4313 54.0821H23.2425C22.8029 54.0821 22.4453 53.7245 22.4453 53.285V52.0344H28.192C28.6779 52.0344 29.0716 51.6406 29.0716 51.1548C29.0716 50.6691 28.6779 50.2753 28.192 50.2753H20.8331C20.1367 50.2753 19.5701 49.7087 19.5701 49.0123C19.5701 48.345 20.0907 47.7983 20.7469 47.7538C20.7575 47.7538 20.7685 47.7535 20.7791 47.7532C20.7992 47.7525 20.8191 47.7512 20.8389 47.7499L20.8447 47.7495H34.8404L34.833 47.7499L34.8564 47.7514L34.8828 47.7528L34.8905 47.7532C34.902 47.7536 34.9133 47.7538 34.9247 47.7539C35.5817 47.7975 36.1034 48.3446 36.1034 49.0125C36.1037 49.7088 35.5372 50.2753 34.8408 50.2753ZM19.0127 12.0497H15.5838C14.6679 12.0497 13.9225 11.3044 13.9225 10.3885V6.95947C13.9225 6.04329 14.6677 5.2981 15.5838 5.2981H19.0127C19.9288 5.2981 20.6739 6.0434 20.6739 6.95947V10.3885C20.6739 11.3045 19.9288 12.0497 19.0127 12.0497ZM18.9148 7.0574H15.6817V10.2905H18.9148V7.0574ZM46.9967 41.7727H43.1998C42.2837 41.7727 41.5385 42.5179 41.5385 43.434V47.2309C41.5385 48.1469 42.2837 48.8922 43.1998 48.8922H46.9967C47.9127 48.8922 48.6579 48.147 48.6579 47.2309V43.434C48.6579 42.518 47.9127 41.7727 46.9967 41.7727ZM46.8987 47.1331H43.2977V43.5319H46.8987V47.1331ZM49.3979 34.3137H51.6316C52.5475 34.3137 53.2928 35.059 53.2928 35.975V38.2086C53.2928 39.1246 52.5476 39.8698 51.6316 39.8698H49.3979C48.4818 39.8698 47.7366 39.1246 47.7366 38.2086V35.975C47.7366 35.0589 48.4818 34.3137 49.3979 34.3137ZM49.4958 38.1107H51.5337V36.073H49.4958V38.1107ZM4.57716 12.5342H2.96704C2.05098 12.5342 1.30579 11.789 1.30579 10.8729V9.26282C1.30579 8.34675 2.05098 7.60156 2.96704 7.60156H4.57716C5.49335 7.60156 6.23854 8.34675 6.23854 9.26282V10.8729C6.23854 11.789 5.49323 12.5342 4.57716 12.5342ZM4.47935 9.36075H3.06497V10.7751H4.47935V9.36075ZM47.1065 5.50366H40.2061C39.7202 5.50366 39.3265 5.89748 39.3265 6.38325V13.2836C39.3265 13.7694 39.7202 14.1632 40.2061 14.1632H47.1065C47.5924 14.1632 47.9861 13.7694 47.9861 13.2836V6.38325C47.9861 5.89748 47.5924 5.50366 47.1065 5.50366ZM46.2269 12.404H41.0857V7.26285H46.2269V12.404Z" fill="currentColor"/>
    </symbol>

    <symbol viewBox="0 0 60 60" id="about-2" xmlns="http://www.w3.org/2000/svg">
        <path fill-rule="evenodd" clip-rule="evenodd" d="M21.17 9.70793H9.71074V21.1457H7.94988V7.94836H21.17C21.6134 3.49195 25.3861 0 29.96 0C34.534 0 38.3067 3.49195 38.75 7.94836H51.9514V21.1458H50.1906V9.70805H38.7497C38.5853 11.3911 37.9501 12.9677 36.8851 14.3099L35.5055 13.2165C36.505 11.9571 37.0332 10.4396 37.0332 8.8282C37.0332 4.93055 33.8603 1.75969 29.96 1.75969C26.0598 1.75969 22.8868 4.93055 22.8868 8.8282C22.8868 12.7259 26.0598 15.8967 29.96 15.8967C31.5827 15.8967 33.1089 15.3627 34.3732 14.3525L35.4728 15.7268C34.1454 16.7875 32.5266 17.4401 30.8405 17.6101V21.1457H29.0796V17.6122C24.91 17.198 21.5845 13.8748 21.17 9.70793ZM26.6363 8.23699L25.3913 9.48141L28.6239 12.7118L34.5288 6.81082L33.2837 5.56652L28.6239 10.2233L26.6363 8.23699ZM17.6231 40.5084H0V22.8991H17.6231V40.5084ZM10.5798 24.6587H7.0807V28.1521H10.5798V24.6587ZM5.31996 24.6587H1.76086V38.7489H15.8624V24.6587H12.3408V29.9118H5.31996V24.6587ZM0 60H17.6231V42.2619H0V60ZM7.0807 44.0216H10.5798V47.5576H7.0807V44.0216ZM1.76086 44.0216H5.31996V49.3173H12.3408V44.0216H15.8624V58.2403H1.76086V44.0216ZM3.53039 51.0707H7.05199V52.8304H3.53039V51.0707ZM7.05199 54.5837H3.53039V56.3434H7.05199V54.5837ZM42.377 60H51.071V58.2403H44.1377V44.0216H47.6968V49.3173H54.7177V44.0216H58.2393V58.2403H56.3535V60H60V42.2619H42.377V60ZM52.9568 47.5576H49.4577V44.0216H52.9568V47.5576ZM54.5926 58.2403H52.8318V60H54.5926V58.2403ZM45.9073 51.0707H49.4289V52.8304H45.9073V51.0707ZM49.4289 54.5837H45.9073V56.3434H49.4289V54.5837ZM21.1297 60H38.7529V42.2619H21.1297V60ZM28.2104 44.0216H31.7095V47.5576H28.2104V44.0216ZM22.8906 44.0216H26.4497V49.3173H33.4705V44.0216H36.9921V58.2403H22.8906V44.0216ZM28.1817 51.0707H24.6601V52.8304H28.1817V51.0707ZM24.6601 54.5837H28.1817V56.3434H24.6601V54.5837ZM3.53039 31.637H7.05199V33.3967H3.53039V31.637ZM7.05199 35.1218H3.53039V36.8815H7.05199V35.1218ZM42.377 22.8991V40.5086H60V22.8991H42.377ZM49.4576 24.6587H52.9567V28.1521H49.4576V24.6587ZM58.2391 38.7489H44.1377V24.6587H47.6968V29.9118H54.7177V24.6587H58.2393V38.7489H58.2391ZM49.4289 31.637H45.9073V33.3967H49.4289V31.637ZM45.9073 35.1218H49.4289V36.8815H45.9073V35.1218ZM22.8906 28.1842H21.1297V22.8991H38.7529V40.5086H21.1297V29.9439H22.8906V38.7489H36.9921V24.6587H33.4705V29.9118H26.4497V24.6587H22.8906V28.1842ZM28.2105 28.1522H31.7096V24.6588H28.2105V28.1522ZM24.6601 31.637H28.1817V33.3967H24.6601V31.637ZM28.1817 35.1218H24.6601V36.8815H28.1817V35.1218Z" fill="currentColor"/>
    </symbol>

    <symbol viewBox="0 0 52 60" id="about-3" xmlns="http://www.w3.org/2000/svg">
        <path fill-rule="evenodd" clip-rule="evenodd" d="M32.2447 36.8788C32.3829 37.1996 32.6878 37.4169 33.0361 37.4428C33.0595 37.4446 33.0827 37.4454 33.106 37.4454C33.4285 37.4454 33.7306 37.2791 33.9024 37.0022L36.1739 33.3419L40.394 34.2061C40.7366 34.276 41.0889 34.1502 41.3094 33.8794C41.5298 33.6086 41.5814 33.2376 41.4433 32.9168L38.3091 25.64C38.405 25.5993 38.5031 25.5575 38.6064 25.5133C40.2227 24.8212 41.1683 23.1831 40.9597 21.4374C40.9209 21.1131 40.8847 20.8246 40.8522 20.5656C40.722 19.5268 40.6565 19.0053 40.7268 18.6068C40.7971 18.2084 41.0369 17.7407 41.5147 16.8091C41.6339 16.5767 41.7665 16.318 41.9138 16.0265C42.7071 14.4573 42.3786 12.5946 41.0966 11.3916C40.8586 11.1681 40.6453 10.9704 40.454 10.7928C39.6863 10.0807 39.301 9.72332 39.0989 9.37292C38.8965 9.02253 38.7797 8.51019 38.5468 7.48949C38.4887 7.23496 38.424 6.95136 38.3495 6.63332C37.9484 4.92144 36.4995 3.70574 34.7441 3.60812C34.418 3.58996 34.1277 3.57554 33.8669 3.56253C32.8211 3.5105 32.2963 3.48437 31.9161 3.34597C31.5359 3.20757 31.1171 2.89023 30.2825 2.25789C30.0745 2.10015 29.8426 1.9246 29.5813 1.7289C28.1736 0.675386 26.2824 0.675269 24.8748 1.7289C24.6134 1.9246 24.3815 2.10015 24.1735 2.25789C23.3389 2.89023 22.9201 3.20757 22.5399 3.34597C22.1598 3.48437 21.6348 3.5105 20.5891 3.56253C20.3282 3.57554 20.038 3.58996 19.712 3.60812C17.9565 3.70574 16.5075 4.92156 16.1066 6.63332C16.032 6.95136 15.9673 7.23484 15.9092 7.48949C15.6764 8.51019 15.5595 9.02265 15.3572 9.37292C15.1549 9.72332 14.7696 10.0807 14.002 10.7928C13.8106 10.9704 13.5975 11.1681 13.3595 11.3916C12.0775 12.5948 11.7489 14.4575 12.5421 16.0266C12.6894 16.3179 12.822 16.5766 12.9411 16.8088C13.4189 17.7406 13.6588 18.2083 13.7291 18.6067C13.7994 19.005 13.7339 19.5265 13.6037 20.5653C13.5712 20.8244 13.535 21.113 13.4962 21.4374C13.2876 23.1831 14.2332 24.8212 15.8495 25.5133C16.1497 25.6418 16.4176 25.7548 16.6582 25.8562C16.7313 25.887 16.8007 25.9163 16.8684 25.9449L13.0238 34.2024C12.8764 34.519 12.9173 34.8912 13.1297 35.1685C13.3421 35.4456 13.691 35.5821 14.0352 35.5216L18.2789 34.7801L20.4432 38.5047C20.6116 38.7943 20.9207 38.9711 21.2537 38.9711C21.2677 38.9711 21.282 38.9707 21.2962 38.9702C21.6452 38.9543 21.9563 38.7459 22.1038 38.4293L25.9298 30.2111C26.5436 30.0266 26.9157 29.9337 27.2282 29.9337C27.6328 29.9337 28.135 30.0886 29.1356 30.3974C29.2514 30.4332 29.3739 30.471 29.5025 30.5104L32.2447 36.8788ZM35.9098 31.3738C35.5252 31.2952 35.1322 31.4644 34.9251 31.7979L33.2563 34.4874L31.663 30.7879C32.7566 30.6361 33.7575 30.0234 34.3973 29.0448C34.576 28.7714 34.7338 28.5272 34.8754 28.3078C35.4434 27.4282 35.7284 26.9868 36.0384 26.7266C36.1775 26.6099 36.3522 26.5044 36.5892 26.3869L39.0105 32.0087L35.9098 31.3738ZM21.1612 36.0096L19.5711 33.2731C19.3738 32.9336 18.9859 32.7532 18.5991 32.8206L15.4813 33.3653L18.5255 26.8267C18.7975 27.0969 19.0786 27.5317 19.5798 28.308C19.7214 28.5273 19.8792 28.7716 20.0579 29.0448C20.8489 30.2546 22.1911 30.9062 23.5786 30.8174L21.1612 36.0096ZM27.2275 28.0578C26.5896 28.0578 25.9514 28.2405 24.7673 28.6059C24.5209 28.6819 24.2466 28.7665 23.938 28.8598C23.0454 29.1293 22.1379 28.7996 21.627 28.0186C21.4504 27.7487 21.2947 27.5075 21.1549 27.2909C19.8104 25.2089 19.6695 25.0908 17.3857 24.1284C17.1481 24.0283 16.8835 23.9167 16.587 23.7897C15.7293 23.4223 15.2466 22.5863 15.3574 21.6598C15.3957 21.3395 15.4314 21.0544 15.4636 20.7986C15.7719 18.3398 15.7399 18.1586 14.6089 15.9531C14.4913 15.7237 14.3604 15.4683 14.2149 15.1806C13.794 14.3479 13.9617 13.3973 14.6421 12.7587C14.8773 12.538 15.0877 12.3428 15.2768 12.1674C17.0938 10.4819 17.1856 10.3226 17.7369 7.90656C17.7942 7.65507 17.858 7.37511 17.9316 7.06093C18.1443 6.15249 18.8839 5.53199 19.8155 5.48019C20.1376 5.46226 20.4243 5.44796 20.6819 5.43519C23.1572 5.31191 23.3301 5.24898 25.3054 3.75238C25.511 3.59664 25.7398 3.4232 25.998 3.22996C26.7451 2.67085 27.7102 2.67085 28.4573 3.22996C28.7155 3.4232 28.9443 3.59664 29.1499 3.75238C31.1252 5.24898 31.2982 5.31191 33.7734 5.43519C34.0309 5.44796 34.3177 5.46226 34.6398 5.48019C35.5714 5.53199 36.3109 6.15249 36.5237 7.06093C36.5973 7.375 36.6611 7.65496 36.7184 7.90644C37.2697 10.3225 37.3616 10.4819 39.1786 12.1673C39.3676 12.3427 39.578 12.5379 39.8132 12.7586C40.4936 13.3971 40.6611 14.3478 40.2403 15.1805C40.0948 15.4683 39.9638 15.7239 39.8461 15.9534C38.7153 18.1586 38.6833 18.3398 38.9918 20.7988C39.0238 21.0546 39.0596 21.3395 39.0978 21.6597C39.2086 22.5862 38.7259 23.4223 37.8682 23.7896C37.5717 23.9165 37.3071 24.028 37.0695 24.1282C34.7858 25.0907 34.6449 25.2089 33.3004 27.2908C33.1606 27.5075 33.0049 27.7486 32.8283 28.0186C32.3177 28.7994 31.4109 29.1298 30.5173 28.8598C30.2087 28.7665 29.9343 28.6818 29.688 28.6059C28.5037 28.2405 27.8655 28.0578 27.2275 28.0578ZM36.5319 15.8818C36.5319 10.7513 32.358 6.57742 27.2275 6.57742C22.0972 6.57742 17.9233 10.7513 17.9233 15.8818C17.9233 21.0122 22.0972 25.1862 27.2275 25.1862C32.3579 25.1862 36.5319 21.0123 36.5319 15.8818ZM27.2274 23.3112C23.1309 23.3112 19.7982 19.9784 19.7982 15.8818C19.7982 11.7852 23.1309 8.45242 27.2274 8.45242C31.3239 8.45242 34.6568 11.7852 34.6568 15.8818C34.6569 19.9784 31.3239 23.3112 27.2274 23.3112ZM32.3764 13.6712L25.9746 19.4811C25.7955 19.6436 25.5699 19.7243 25.3447 19.7243C25.1042 19.7243 24.8642 19.6323 24.6816 19.4498L22.0459 16.814C21.6798 16.4479 21.6798 15.8543 22.0459 15.4882C22.4121 15.1221 23.0055 15.1221 23.3717 15.4882L25.376 17.4925L31.1164 12.2829C31.4997 11.9351 32.0927 11.9637 32.4406 12.3471C32.7886 12.7303 32.7598 13.3233 32.3764 13.6712ZM50.1743 44.388C51.41 43.1525 52.0375 41.5937 51.9891 39.8803L51.5326 23.7632C51.4876 22.1717 49.9053 20.7456 48.1992 20.7456C48.1828 20.7456 48.1665 20.7457 48.1502 20.746C47.3178 20.7593 44.6039 21.2077 44.6236 26.417L44.657 35.172C44.6578 35.3721 44.6451 35.5666 44.6191 35.7561C44.553 35.6771 44.4822 35.5998 44.4068 35.5244C43.2497 34.3674 41.3547 34.3527 40.0926 35.491C40.0612 35.5192 40.0317 35.5496 40.0045 35.5818C38.5923 37.2515 36.8571 38.714 35.4627 39.889C34.9736 40.3012 34.5119 40.6903 34.1327 41.0321C32.5426 42.4653 32.3304 44.44 32.3325 46.1826L32.34 52.4176L31.5315 52.4107C30.9841 52.4057 30.4682 52.6153 30.0768 53C29.6854 53.3847 29.4672 53.8977 29.4625 54.4444L29.4416 56.8833C29.4369 57.43 29.6462 57.9467 30.0309 58.3381C30.4155 58.7295 30.9286 58.9476 31.4752 58.9523L44.1451 59.0611C44.1511 59.0611 44.157 59.0612 44.163 59.0612C44.703 59.0612 45.2127 58.8523 45.5997 58.4718C45.9911 58.0871 46.2092 57.5741 46.2139 57.0275L46.2349 54.5885C46.2396 54.0419 46.0303 53.5252 45.6455 53.1338C45.2609 52.7424 44.7479 52.5243 44.2012 52.5196L43.1588 52.5107V51.4034L50.1743 44.388ZM44.3599 54.5725L44.3389 57.0114C44.3384 57.0702 44.3095 57.111 44.2852 57.1348C44.2611 57.1587 44.2234 57.1866 44.161 57.1864L31.4912 57.0775C31.4325 57.077 31.3917 57.0481 31.3679 57.0238C31.3441 56.9996 31.3159 56.9584 31.3164 56.8996L31.3374 54.4607C31.3379 54.4019 31.3668 54.3611 31.3911 54.3373C31.415 54.3137 31.4558 54.2857 31.5136 54.2857H31.5152H31.5153L44.1852 54.3946C44.2808 54.3955 44.3608 54.4769 44.3599 54.5725ZM34.215 52.4339L34.2075 46.1805C34.2051 44.2709 34.5472 43.1829 35.3881 42.425C35.744 42.1041 36.1735 41.7421 36.6709 41.323C38.1043 40.1148 39.885 38.6143 41.3898 36.8474C41.9161 36.406 42.6345 36.404 43.0809 36.8503C43.556 37.3253 43.5566 37.8904 43.0849 38.53C42.3395 39.3679 41.5557 40.1269 40.7264 40.9294C40.3283 41.3147 39.9165 41.7132 39.5012 42.1286C39.1351 42.4947 39.1351 43.0882 39.5013 43.4543C39.6843 43.6374 39.9241 43.7289 40.1641 43.7289C40.4041 43.7289 40.6441 43.6374 40.827 43.4542C41.2314 43.0498 41.6375 42.6567 42.0303 42.2767C42.8968 41.4382 43.7151 40.6463 44.5168 39.7418C44.521 39.737 45.1447 38.9741 45.1447 38.9741C46.0835 37.8184 46.5372 36.5724 46.532 35.1651L46.4986 26.41C46.4898 24.0896 47.1342 22.6376 48.1802 22.6209C48.1866 22.6207 48.1929 22.6207 48.1992 22.6207C48.8954 22.6207 49.6418 23.2295 49.6583 23.8164L50.1148 39.9335C50.1488 41.1354 49.7227 42.1881 48.8484 43.0622L41.5584 50.3522C41.3826 50.528 41.2838 50.7665 41.2838 51.015V52.4946L34.215 52.4339ZM32.2393 55.4141C32.3939 55.0252 32.8346 54.8352 33.2236 54.9899C33.6125 55.1445 33.8025 55.5852 33.6479 55.9742C33.4932 56.3631 33.0526 56.5531 32.6636 56.3984C32.2746 56.2437 32.0846 55.8031 32.2393 55.4141ZM21.9232 53.0002C21.5318 52.6153 21.0147 52.4067 20.4684 52.411L19.66 52.4179L19.6675 46.1828C19.6696 44.4401 19.4574 42.4654 17.8673 41.0323C17.4883 40.6905 17.0264 40.3014 16.5375 39.8894C15.1432 38.7142 13.4079 37.2517 11.9956 35.582C11.9684 35.5498 11.939 35.5194 11.9076 35.4912C10.6449 34.353 8.74989 34.3677 7.59336 35.5246C7.51778 35.6001 7.44711 35.6773 7.38102 35.7563C7.35489 35.5668 7.34235 35.3725 7.34317 35.1723L7.37657 26.4171C7.39625 21.2078 4.68231 20.7596 3.84992 20.7461C3.83352 20.7459 3.81746 20.7457 3.80094 20.7457C2.09481 20.7457 0.512425 22.1719 0.467542 23.7633L0.0109793 39.8806C-0.0374192 41.594 0.59012 43.1526 1.82574 44.3881L8.84118 51.4036V52.5109L7.79879 52.5198C7.25211 52.5245 6.73907 52.7426 6.35446 53.134C5.96973 53.5254 5.76043 54.0421 5.76512 54.5888L5.7861 57.0277C5.79078 57.5744 6.00887 58.0873 6.40028 58.472C6.78735 58.8525 7.29688 59.0615 7.837 59.0615C7.84297 59.0615 7.84907 59.0615 7.85492 59.0614L20.5248 58.9525C21.0714 58.9478 21.5845 58.7297 21.9691 58.3383C22.3538 57.9469 22.5631 57.4302 22.5584 56.8835L22.5375 54.4446C22.5329 53.898 22.3146 53.3849 21.9232 53.0002ZM10.7162 51.015C10.7162 50.7664 10.6174 50.528 10.4416 50.3522L3.15149 43.0621C2.27727 42.188 1.85117 41.1354 1.88516 39.9335L2.34172 23.8163C2.35848 23.224 3.12313 22.6107 3.81981 22.6209C4.86582 22.6376 5.51024 24.0896 5.50145 26.4099L5.46805 35.1651C5.46278 36.5724 5.91653 37.8183 6.85696 38.9761L7.45883 39.713C7.46293 39.718 7.4791 39.737 7.48332 39.7418C8.285 40.6463 9.10332 41.4382 9.96981 42.2767C10.3626 42.6569 10.7686 43.0498 11.1731 43.4542C11.3561 43.6373 11.596 43.7289 11.836 43.7289C12.0759 43.7289 12.3159 43.6374 12.4988 43.4543C12.865 43.0882 12.865 42.4947 12.4989 42.1286C12.0836 41.7133 11.6718 41.3147 11.2738 40.9294C10.4444 40.1268 9.66067 39.3679 8.91524 38.53C8.44367 37.8905 8.44414 37.3254 8.91922 36.8505C9.36582 36.404 10.0841 36.406 10.6105 36.8474C12.1152 38.6144 13.8957 40.115 15.3294 41.3232C15.8266 41.7423 16.2561 42.1042 16.6121 42.4252C17.4529 43.1829 17.795 44.271 17.7927 46.1806L17.7852 52.4341L10.7163 52.4948L10.7162 51.015ZM20.632 57.0239C20.6082 57.0482 20.5674 57.0771 20.5087 57.0776L7.83887 57.1865C7.77899 57.1866 7.73879 57.1588 7.71465 57.1349C7.69039 57.1111 7.66145 57.0705 7.66098 57.0115L7.64 54.5726C7.63942 54.5138 7.66766 54.4725 7.69145 54.4484C7.71524 54.4243 7.75602 54.3952 7.81473 54.3947L20.4845 54.2859H20.4862C20.5441 54.2859 20.5849 54.3139 20.6088 54.3374C20.633 54.3612 20.662 54.402 20.6625 54.4608L20.6834 56.8997C20.684 56.9585 20.6558 56.9997 20.632 57.0239ZM19.7607 55.4141C19.9154 55.8031 19.7254 56.2437 19.3365 56.3984C18.9475 56.5531 18.5068 56.3631 18.3522 55.9742C18.1975 55.5852 18.3875 55.1446 18.7764 54.9899C19.1654 54.8352 19.606 55.0252 19.7607 55.4141Z" fill="currentColor"/>
    </symbol>

    <symbol viewBox="0 0 60 60" id="about-4" xmlns="http://www.w3.org/2000/svg">
        <path fill-rule="evenodd" clip-rule="evenodd" d="M31 0.875C31 0.322715 30.5523 -0.125 30 -0.125C29.4477 -0.125 29 0.322715 29 0.875V7.5V10.3358L27.9571 9.29289C27.5666 8.90237 26.9334 8.90237 26.5429 9.29289C26.1524 9.68342 26.1524 10.3166 26.5429 10.7071L29.292 13.4562L29.2995 13.4636C29.4799 13.6407 29.7272 13.75 30 13.75C30.1356 13.75 30.2649 13.723 30.3828 13.6741C30.5007 13.6253 30.6112 13.553 30.7071 13.4571L33.4571 10.7071C33.8476 10.3166 33.8476 9.68342 33.4571 9.29289C33.0666 8.90237 32.4334 8.90237 32.0429 9.29289L31 10.3358V7.5V0.875ZM27 22.375C27 20.8169 28.313 19.5 30 19.5C31.687 19.5 33 20.8169 33 22.375C33 23.9331 31.687 25.25 30 25.25C28.313 25.25 27 23.9331 27 22.375ZM30 17.5C27.2687 17.5 25 19.6529 25 22.375C25 25.0971 27.2687 27.25 30 27.25C32.7313 27.25 35 25.0971 35 22.375C35 19.6529 32.7313 17.5 30 17.5ZM30 28.5C27.5033 28.5 25.0665 28.8457 23.2248 29.9364C21.2955 31.079 20.125 32.9781 20.125 35.75V36C20.125 38.2319 22.004 39.875 24.125 39.875H35.875C37.996 39.875 39.875 38.2312 39.875 35.9993V35.75C39.875 32.9781 38.7045 31.079 36.7752 29.9364C34.9335 28.8457 32.4967 28.5 30 28.5ZM22.125 35.75C22.125 33.6469 22.9545 32.421 24.2439 31.6573C25.621 30.8418 27.6217 30.5 30 30.5C32.3783 30.5 34.379 30.8418 35.7561 31.6573C37.0455 32.421 37.875 33.6476 37.875 35.7507V36C37.875 37.0181 37.004 37.875 35.875 37.875H24.125C22.996 37.875 22.125 37.0181 22.125 36V35.75ZM29.6172 46.3259C29.502 46.3736 29.3938 46.4437 29.2995 46.5364L29.2921 46.5437L26.5429 49.2929C26.1524 49.6834 26.1524 50.3166 26.5429 50.7071C26.9334 51.0976 27.5666 51.0976 27.9571 50.7071L29 49.6642V52.5V59.125C29 59.6773 29.4477 60.125 30 60.125C30.5523 60.125 31 59.6773 31 59.125V52.5V49.6642L32.0429 50.7071C32.4334 51.0976 33.0666 51.0976 33.4571 50.7071C33.8476 50.3166 33.8476 49.6834 33.4571 49.2929L30.7071 46.5429C30.4125 46.2482 29.9797 46.1759 29.6172 46.3259ZM10.7234 26.5595C10.342 26.16 9.70902 26.1453 9.30953 26.5266C8.91003 26.908 8.89531 27.541 9.27665 27.9405L10.288 29H7.5H0.875C0.322715 29 -0.125 29.4477 -0.125 30C-0.125 30.5523 0.322715 31 0.875 31H7.5H10.288L9.27665 32.0595C8.89531 32.459 8.91003 33.092 9.30953 33.4734C9.70902 33.8547 10.342 33.84 10.7234 33.4405L13.3484 30.6905C13.4225 30.6129 13.4817 30.5263 13.526 30.4343C13.5874 30.3073 13.6227 30.1652 13.6249 30.0152C13.625 30.0051 13.625 29.9949 13.6249 29.9848C13.6226 29.8334 13.5867 29.6901 13.5243 29.5622C13.4849 29.4813 13.4339 29.4045 13.3714 29.3345C13.3635 29.3256 13.3554 29.3169 13.3472 29.3083L10.7234 26.5595ZM50.6905 26.5266C51.09 26.908 51.1047 27.541 50.7234 27.9405L49.712 29H52.5H59.125C59.6773 29 60.125 29.4477 60.125 30C60.125 30.5523 59.6773 31 59.125 31H52.5H49.712L50.7234 32.0595C51.1047 32.459 51.09 33.092 50.6905 33.4734C50.291 33.8547 49.658 33.84 49.2766 33.4405L46.6516 30.6905C46.5785 30.6138 46.5198 30.5285 46.4757 30.4378C46.4112 30.3056 46.375 30.157 46.375 30C46.375 29.7478 46.4684 29.5173 46.6225 29.3414C46.6325 29.3299 46.6428 29.3187 46.6534 29.3077L49.2766 26.5595C49.658 26.16 50.291 26.1453 50.6905 26.5266ZM51.3417 8.80265C51.7269 9.19848 51.7182 9.83159 51.3224 10.2167L45.2955 13.2903L45.3045 13.2815L49.9276 8.78327C50.3235 8.39814 50.9566 8.40681 51.3417 8.80265ZM51.3224 10.2167L46.7022 14.712L44.6642 16.75H46C46.5523 16.75 47 17.1977 47 17.75C47 18.3023 46.5523 18.75 46 18.75H42.25C42.1144 18.75 41.9851 18.723 41.8672 18.6741C41.751 18.626 41.6421 18.5551 41.5472 18.4614L41.5408 18.455C41.3611 18.2742 41.25 18.0251 41.25 17.75V17.7498V14C41.25 13.4477 41.6977 13 42.25 13C42.8023 13 43.25 13.4477 43.25 14V15.3358L45.2915 13.2943L51.3224 10.2167ZM6.30264 52.5333C5.90681 52.9184 5.89813 53.5515 6.28327 53.9474C6.66841 54.3432 7.30152 54.3519 7.69735 53.9667L12.3205 49.4685L12.3295 49.4597L6.30264 52.5333ZM6.30264 52.5333L12.3335 49.4557L14.375 47.4142V48.75C14.375 49.3023 14.8227 49.75 15.375 49.75C15.9273 49.75 16.375 49.3023 16.375 48.75V45.0002V45C16.375 44.7249 16.2639 44.4758 16.0842 44.295L16.0778 44.2886C15.9829 44.1949 15.874 44.124 15.7578 44.0759C15.6399 44.027 15.5106 44 15.375 44H11.625C11.0727 44 10.625 44.4477 10.625 45C10.625 45.5523 11.0727 46 11.625 46H12.9608L10.9228 48.038L6.30264 52.5333ZM6.30265 7.28327C6.69848 6.89813 7.33159 6.90681 7.71673 7.30264L10.7903 13.3295L10.7815 13.3205L6.28327 8.69735C5.89814 8.30152 5.90681 7.66841 6.30265 7.28327ZM14.25 13.9608L12.212 11.9228L7.71673 7.30264L10.7943 13.3335L12.8358 15.375H11.5C10.9477 15.375 10.5 15.8227 10.5 16.375C10.5 16.9273 10.9477 17.375 11.5 17.375H15.2498H15.25C15.5251 17.375 15.7742 17.2639 15.955 17.0842L15.9614 17.0778C16.0551 16.9829 16.126 16.874 16.1741 16.7578C16.223 16.6399 16.25 16.5106 16.25 16.375V12.625C16.25 12.0727 15.8023 11.625 15.25 11.625C14.6977 11.625 14.25 12.0727 14.25 12.625V13.9608ZM47.4597 48.0455L50.5333 54.0724L47.4557 48.0415L45.4142 46H46.75C47.3023 46 47.75 45.5523 47.75 45C47.75 44.4477 47.3023 44 46.75 44H43.0002H43C42.7249 44 42.4758 44.1111 42.295 44.2908L42.2886 44.2972C42.1949 44.3921 42.124 44.501 42.0759 44.6172C42.027 44.7351 42 44.8644 42 45V48.75C42 49.3023 42.4477 49.75 43 49.75C43.5523 49.75 44 49.3023 44 48.75V47.4142L46.038 49.4522L50.5333 54.0724C50.9184 54.4682 51.5515 54.4769 51.9474 54.0917C52.3432 53.7066 52.3519 53.0735 51.9667 52.6776L47.4685 48.0545L47.4597 48.0455Z" fill="currentColor"/>
    </symbol>

    <symbol viewBox="0 0 60 50" id="about-5" xmlns="http://www.w3.org/2000/svg">
        <path fill-rule="evenodd" clip-rule="evenodd" d="M51.5625 22.1875H55.3125C56.3071 22.1875 57.2609 22.5826 57.9641 23.2859C58.6674 23.9891 59.0625 24.9429 59.0625 25.9375C59.0625 26.9321 58.6674 27.8859 57.9641 28.5891C57.2609 29.2924 56.3071 29.6875 55.3125 29.6875H51.5625C51.5625 30.4334 51.2662 31.1488 50.7387 31.6762C50.2113 32.2037 49.4959 32.5 48.75 32.5H47.8125V35.3125C47.8105 37.0524 47.1185 38.7204 45.8882 39.9507C44.6579 41.181 42.9899 41.873 41.25 41.875V48.4375C41.25 48.6861 41.1512 48.9246 40.9754 49.1004C40.7996 49.2762 40.5611 49.375 40.3125 49.375H36.5625C36.4077 49.3755 36.2552 49.3376 36.1186 49.2648C35.982 49.1921 35.8656 49.0866 35.7797 48.9578L34.1859 46.5625H14.5641L12.9675 48.9578C12.8819 49.0862 12.7659 49.1914 12.6298 49.2642C12.4937 49.337 12.3418 49.375 12.1875 49.375H8.4375C8.18886 49.375 7.9504 49.2762 7.77459 49.1004C7.59877 48.9246 7.5 48.6861 7.5 48.4375V41.875H5.625C4.38225 41.8735 3.19084 41.3792 2.31208 40.5004C1.43333 39.6217 0.938989 38.4302 0.9375 37.1875V14.6875C0.938989 13.4448 1.43333 12.2533 2.31208 11.3746C3.19084 10.4958 4.38225 10.0015 5.625 10H28.125V6.25H27.1875C26.9389 6.25 26.7004 6.15123 26.5246 5.97541C26.3488 5.7996 26.25 5.56114 26.25 5.3125V1.5625C26.25 1.31386 26.3488 1.0754 26.5246 0.899588C26.7004 0.723772 26.9389 0.625 27.1875 0.625H40.3125C40.5611 0.625 40.7996 0.723772 40.9754 0.899588C41.1512 1.0754 41.25 1.31386 41.25 1.5625V5.3125C41.25 5.56114 41.1512 5.7996 40.9754 5.97541C40.7996 6.15123 40.5611 6.25 40.3125 6.25H39.375V10H41.25C42.9899 10.002 44.6579 10.694 45.8882 11.9243C47.1185 13.1546 47.8105 14.8226 47.8125 16.5625V19.375H48.75C49.4959 19.375 50.2113 19.6713 50.7387 20.1988C51.2662 20.7262 51.5625 21.4416 51.5625 22.1875ZM39.375 2.5H28.125V4.375H39.375V2.5ZM37.5 10V6.25H30V10H37.5ZM4.00809 39.4805C4.48066 39.8162 5.04538 39.9976 5.625 40H12.1875V11.875H5.625C5.04538 11.8774 4.48066 12.0588 4.00809 12.3945C3.53553 12.7301 3.1782 13.2035 2.985 13.75H8.4375C8.68614 13.75 8.9246 13.8488 9.10041 14.0246C9.27623 14.2004 9.375 14.4389 9.375 14.6875C9.375 14.9361 9.27623 15.1746 9.10041 15.3504C8.9246 15.5262 8.68614 15.625 8.4375 15.625H2.8125V17.5H8.4375C8.68614 17.5 8.9246 17.5988 9.10041 17.7746C9.27623 17.9504 9.375 18.1889 9.375 18.4375C9.375 18.6861 9.27623 18.9246 9.10041 19.1004C8.9246 19.2762 8.68614 19.375 8.4375 19.375H2.8125V21.25H8.4375C8.68614 21.25 8.9246 21.3488 9.10041 21.5246C9.27623 21.7004 9.375 21.9389 9.375 22.1875C9.375 22.4361 9.27623 22.6746 9.10041 22.8504C8.9246 23.0262 8.68614 23.125 8.4375 23.125H2.8125V25H8.4375C8.68614 25 8.9246 25.0988 9.10041 25.2746C9.27623 25.4504 9.375 25.6889 9.375 25.9375C9.375 26.1861 9.27623 26.4246 9.10041 26.6004C8.9246 26.7762 8.68614 26.875 8.4375 26.875H2.8125V28.75H8.4375C8.68614 28.75 8.9246 28.8488 9.10041 29.0246C9.27623 29.2004 9.375 29.4389 9.375 29.6875C9.375 29.9361 9.27623 30.1746 9.10041 30.3504C8.9246 30.5262 8.68614 30.625 8.4375 30.625H2.8125V32.5H8.4375C8.68614 32.5 8.9246 32.5988 9.10041 32.7746C9.27623 32.9504 9.375 33.1889 9.375 33.4375C9.375 33.6861 9.27623 33.9246 9.10041 34.1004C8.9246 34.2762 8.68614 34.375 8.4375 34.375H2.8125V36.25H8.4375C8.68614 36.25 8.9246 36.3488 9.10041 36.5246C9.27623 36.7004 9.375 36.9389 9.375 37.1875C9.375 37.4361 9.27623 37.6746 9.10041 37.8504C8.9246 38.0262 8.68614 38.125 8.4375 38.125H2.985C3.1782 38.6715 3.53553 39.1449 4.00809 39.4805ZM37.0641 47.5H39.375V41.875H9.375V47.5H11.6859L13.2825 45.1047C13.3681 44.9763 13.4841 44.8711 13.6202 44.7983C13.7563 44.7255 13.9082 44.6875 14.0625 44.6875H34.6875C34.8423 44.687 34.9948 44.7249 35.1314 44.7977C35.268 44.8704 35.3844 44.9759 35.4703 45.1047L37.0641 47.5ZM45.9375 18.4375H40.3125C40.0639 18.4375 39.8254 18.3387 39.6496 18.1629C39.4738 17.9871 39.375 17.7486 39.375 17.5C39.375 17.2514 39.4738 17.0129 39.6496 16.8371C39.8254 16.6613 40.0639 16.5625 40.3125 16.5625H45.9375C45.936 15.3198 45.4417 14.1283 44.5629 13.2496C43.6842 12.3708 42.4927 11.8765 41.25 11.875H14.0625V16.5625H19.6875C19.9361 16.5625 20.1746 16.6613 20.3504 16.8371C20.5262 17.0129 20.625 17.2514 20.625 17.5C20.625 17.7486 20.5262 17.9871 20.3504 18.1629C20.1746 18.3387 19.9361 18.4375 19.6875 18.4375H14.0625V22.1875H19.6875C19.9361 22.1875 20.1746 22.2863 20.3504 22.4621C20.5262 22.6379 20.625 22.8764 20.625 23.125C20.625 23.3736 20.5262 23.6121 20.3504 23.7879C20.1746 23.9637 19.9361 24.0625 19.6875 24.0625H14.0625V27.8125H19.6875C19.9361 27.8125 20.1746 27.9113 20.3504 28.0871C20.5262 28.2629 20.625 28.5014 20.625 28.75C20.625 28.9986 20.5262 29.2371 20.3504 29.4129C20.1746 29.5887 19.9361 29.6875 19.6875 29.6875H14.0625V33.4375H19.6875C19.9361 33.4375 20.1746 33.5363 20.3504 33.7121C20.5262 33.8879 20.625 34.1264 20.625 34.375C20.625 34.6236 20.5262 34.8621 20.3504 35.0379C20.1746 35.2137 19.9361 35.3125 19.6875 35.3125H14.0625V40H41.25C42.4927 39.9985 43.6842 39.5042 44.5629 38.6254C45.4417 37.7467 45.936 36.5552 45.9375 35.3125H40.3125C40.0639 35.3125 39.8254 35.2137 39.6496 35.0379C39.4738 34.8621 39.375 34.6236 39.375 34.375C39.375 34.1264 39.4738 33.8879 39.6496 33.7121C39.8254 33.5363 40.0639 33.4375 40.3125 33.4375H45.9375V29.6875H40.3125C40.0639 29.6875 39.8254 29.5887 39.6496 29.4129C39.4738 29.2371 39.375 28.9986 39.375 28.75C39.375 28.5014 39.4738 28.2629 39.6496 28.0871C39.8254 27.9113 40.0639 27.8125 40.3125 27.8125H45.9375V24.0625H40.3125C40.0639 24.0625 39.8254 23.9637 39.6496 23.7879C39.4738 23.6121 39.375 23.3736 39.375 23.125C39.375 22.8764 39.4738 22.6379 39.6496 22.4621C39.8254 22.2863 40.0639 22.1875 40.3125 22.1875H45.9375V18.4375ZM49.4129 30.3504C49.5887 30.1746 49.6875 29.9361 49.6875 29.6875V22.1875C49.6875 21.9389 49.5887 21.7004 49.4129 21.5246C49.2371 21.3488 48.9986 21.25 48.75 21.25H47.8125V30.625H48.75C48.9986 30.625 49.2371 30.5262 49.4129 30.3504ZM51.5625 27.8125H55.3125C55.8098 27.8125 56.2867 27.615 56.6383 27.2633C56.99 26.9117 57.1875 26.4348 57.1875 25.9375C57.1875 25.4402 56.99 24.9633 56.6383 24.6117C56.2867 24.26 55.8098 24.0625 55.3125 24.0625H51.5625V27.8125ZM31.8459 22.6562H35.625C35.7957 22.6567 35.9629 22.7037 36.1088 22.7923C36.2547 22.8808 36.3737 23.0075 36.4529 23.1587C36.5321 23.3098 36.5685 23.4797 36.5583 23.6501C36.548 23.8204 36.4914 23.9847 36.3947 24.1253L28.8947 34.9066C28.7747 35.0787 28.6004 35.2055 28.3997 35.2668C28.1991 35.3282 27.9836 35.3204 27.7879 35.2448C27.5922 35.1692 27.4275 35.0301 27.3202 34.8498C27.2128 34.6695 27.1691 34.4584 27.1959 34.2503L27.9919 28.2812H24.375C24.2298 28.2813 24.0866 28.2477 23.9567 28.183C23.8267 28.1183 23.7135 28.0243 23.6261 27.9084C23.5387 27.7925 23.4793 27.6579 23.4528 27.5152C23.4262 27.3725 23.4332 27.2255 23.4731 27.0859L26.2856 17.2422C26.3417 17.0463 26.46 16.874 26.6227 16.7513C26.7855 16.6287 26.9837 16.5624 27.1875 16.5625H32.3438C32.4889 16.5624 32.6321 16.5961 32.7621 16.6608C32.8921 16.7255 33.0052 16.8195 33.0927 16.9353C33.1801 17.0512 33.2394 17.1858 33.266 17.3286C33.2925 17.4713 33.2856 17.6182 33.2456 17.7578L31.8459 22.6562ZM29.9916 27.4675L29.5659 30.6625L33.8306 24.5312H30.6028C30.4577 24.5312 30.3146 24.4974 30.1848 24.4327C30.0549 24.3679 29.9419 24.2739 29.8546 24.158C29.7672 24.0422 29.708 23.9076 29.6815 23.765C29.655 23.6223 29.662 23.4754 29.7019 23.3359L31.1006 18.4375H27.8944L25.6181 26.4062H29.0625C29.196 26.4063 29.328 26.4348 29.4497 26.49C29.5713 26.5452 29.6797 26.6257 29.7677 26.7262C29.8556 26.8267 29.9211 26.9448 29.9597 27.0727C29.9983 27.2005 30.0092 27.3351 29.9916 27.4675Z" fill="currentColor"/>
    </symbol>

    <symbol viewBox="0 0 58 58" id="about-6" xmlns="http://www.w3.org/2000/svg">
        <path d="M24.2752 51.0757H23.7826C23.3574 49.378 22.9427 47.7063 22.5477 46.0293C21.7912 42.8166 21.0158 40.7664 16.708 39.5444L12.5438 36.5533C11.8284 36.0396 10.9721 35.8625 10.1639 35.9922L7.39098 29.4468C5.51317 25.0142 3.07215 25.5316 2.36926 25.7961C0.637585 26.4468 -0.378782 28.741 0.236686 30.6093L3.77176 41.3391C3.80903 41.4523 3.84688 41.5681 3.88532 41.6864C4.4627 43.4582 5.18118 45.6635 6.83469 46.7998L11.6549 50.1126C12.0369 50.3751 12.3076 50.6888 12.4875 51.0752H12.3811C12.3809 51.0752 12.3808 51.0752 12.3807 51.0752C11.8515 51.0752 11.3554 51.28 10.9837 51.652C10.612 52.0241 10.4075 52.5205 10.408 53.0498V53.0499L10.4108 55.9738C10.4118 57.0605 11.2968 57.9447 12.3834 57.9447L24.2781 57.9453C24.8075 57.9453 25.3037 57.7403 25.6754 57.3683C26.0471 56.9962 26.2515 56.4998 26.2509 55.9705L26.2482 53.0465C26.2469 51.9598 25.3619 51.0757 24.2752 51.0757ZM12.5841 48.7604L7.76399 45.4475C6.5688 44.6262 5.94594 42.7142 5.44532 41.178C5.40618 41.0581 5.36786 40.9405 5.33012 40.8256L1.79505 30.0958C1.42696 28.9787 2.12048 27.6421 2.94653 27.3317C3.9009 26.973 4.99766 28.0029 5.88044 30.0867L8.66305 36.6552C8.4404 36.8335 8.2379 37.0448 8.06341 37.2877C7.03075 38.7255 7.36028 40.7354 8.79794 41.768L14.4888 45.856C14.8569 46.1203 15.3692 46.0362 15.6337 45.6683C15.898 45.3003 15.814 44.7877 15.446 44.5234L9.75512 40.4354C9.05212 39.9304 8.89098 38.9477 9.39606 38.2447C9.90102 37.5416 10.8839 37.3804 11.5868 37.8856L15.869 40.9616C15.9481 41.0183 16.0367 41.0606 16.1305 41.0863C19.7829 42.0888 20.2714 43.5201 20.9509 46.4052C21.3172 47.9605 21.6997 49.5083 22.0913 51.0753L14.2266 51.0748C13.9671 50.1103 13.4155 49.3317 12.5841 48.7604ZM24.5147 56.2087C24.4709 56.2524 24.3944 56.3046 24.2779 56.3046L12.3836 56.3037C12.2006 56.3037 12.0516 56.1548 12.0515 55.9719L12.0487 53.0479C12.0486 52.9316 12.1006 52.855 12.1443 52.8112C12.1881 52.7674 12.2645 52.7155 12.3809 52.7155L23.1382 52.7161C23.1393 52.7161 23.1405 52.7163 23.1417 52.7163C23.1432 52.7163 23.1449 52.7161 23.1465 52.7161H24.2752C24.4583 52.7161 24.6072 52.865 24.6075 53.048L24.6102 55.972C24.6104 56.0885 24.5583 56.165 24.5147 56.2087ZM55.6306 25.796C54.9274 25.5316 52.4868 25.0142 50.6089 29.4467L47.8361 35.9921C47.0283 35.8631 46.1714 36.0395 45.4561 36.5532L41.2919 39.5443C36.9843 40.7662 36.2088 42.8165 35.4522 46.0292C35.0547 47.7173 34.6408 49.3848 34.2174 51.0755H33.7248C32.6381 51.0755 31.7531 51.9597 31.752 53.0465L31.7492 55.9705C31.7488 56.4998 31.9533 56.9962 32.325 57.3683C32.6967 57.7403 33.1929 57.9453 33.7228 57.9453L45.6164 57.9445C46.7031 57.9445 47.5881 57.0603 47.5891 55.9736L47.5918 53.0498C47.5924 52.5204 47.388 52.0239 47.0162 51.6519C46.6445 51.2798 46.1485 51.075 45.6193 51.075C45.6192 51.075 45.619 51.075 45.619 51.075H45.5124C45.6923 50.6886 45.963 50.3749 46.3449 50.1124L51.1652 46.7996C52.8188 45.6631 53.5374 43.4574 54.1148 41.6852C54.1531 41.5673 54.1908 41.4518 54.228 41.3389L57.7631 30.6091C58.3787 28.741 57.3623 26.4468 55.6306 25.796ZM45.6192 52.7156C45.7356 52.7156 45.8121 52.7676 45.8558 52.8113C45.8994 52.855 45.9514 52.9316 45.9513 53.0479L45.9486 55.9721C45.9485 56.155 45.7995 56.3039 45.6164 56.3039L33.7221 56.3047C33.6057 56.3047 33.5292 56.2525 33.4854 56.2088C33.4415 56.1651 33.3896 56.0886 33.3897 55.9721L33.3925 53.0482C33.3927 52.8651 33.5416 52.7163 33.7247 52.7163H34.8534C34.8549 52.7163 34.8566 52.7165 34.8582 52.7165C34.8594 52.7165 34.8606 52.7163 34.8617 52.7163L45.6192 52.7156ZM56.205 30.0958L52.6699 40.8256C52.6322 40.9402 52.594 41.0575 52.555 41.1771C52.0545 42.7138 51.4315 44.6261 50.2361 45.4476L45.4159 48.7604C44.5844 49.3318 44.0328 50.1105 43.7734 51.0751L35.9087 51.0755C36.2988 49.5148 36.6806 47.9703 37.0492 46.4054C37.7287 43.5204 38.2174 42.089 41.8695 41.0865C41.9634 41.0607 42.052 41.0185 42.131 40.9618L46.4131 37.8859C47.1165 37.3808 48.0991 37.5421 48.604 38.2449C48.8471 38.5834 48.9433 38.9987 48.8752 39.4143C48.8072 39.8299 48.5832 40.1927 48.2448 40.4357L42.5539 44.5237C42.1859 44.7881 42.102 45.3007 42.3662 45.6686C42.6307 46.0366 43.1431 46.1205 43.5111 45.8564L49.202 41.7684C49.8963 41.2696 50.3552 40.528 50.4942 39.6799C50.6332 38.8318 50.4351 37.9823 49.9364 37.288C49.7619 37.0452 49.5595 36.8339 49.3367 36.6555L52.1193 30.087C53.0021 28.0033 54.0988 26.9728 55.0533 27.3321C55.8795 27.6421 56.5731 28.9787 56.205 30.0958ZM39.8839 31.8673C43.5867 28.0388 45.6259 23.6146 45.6259 19.4096V5.61289C45.6259 5.21492 45.3402 4.87426 44.9482 4.805C41.2432 4.15098 37.5731 2.60059 34.0402 0.196719C33.9042 0.104258 33.7434 0.0546875 33.5789 0.0546875H24.4213C24.2567 0.0546875 24.0959 0.104141 23.9598 0.196836C20.4269 2.60059 16.757 4.15109 13.0518 4.80512C12.6599 4.87426 12.3741 5.21492 12.3741 5.61301V19.4096C12.3741 23.6145 14.4132 28.0387 18.1159 31.8673C21.1434 34.9978 25.121 37.5425 28.7561 38.6743C28.8356 38.699 28.9177 38.7113 29 38.7113C29.0822 38.7113 29.1644 38.699 29.2439 38.6743C32.8792 37.5423 36.8567 34.9977 39.8839 31.8673ZM29 37.0297C25.6817 35.9393 22.0721 33.598 19.2954 30.7268C15.8901 27.2057 14.0148 23.1866 14.0148 19.4096V6.29164C17.6443 5.55008 21.2249 4.00613 24.6723 1.69531H33.3276C36.7752 4.00613 40.3558 5.55008 43.9851 6.29164V19.4095C43.9851 23.1866 42.1098 27.2057 38.7044 30.7266C35.9281 33.5979 32.3185 35.9393 29 37.0297ZM41.7451 7.43645C38.7839 6.6091 35.8538 5.27316 33.0361 3.46578C32.9039 3.38105 32.7502 3.33594 32.5932 3.33594H25.407C25.25 3.33594 25.0964 3.38094 24.9642 3.46578C22.1462 5.27328 19.216 6.60922 16.2552 7.43645C15.9008 7.53547 15.6556 7.85844 15.6556 8.22652V19.4096C15.6556 23.4465 18.0144 26.8916 19.9932 29.0708C22.427 31.7512 25.6017 33.9785 28.7036 35.1814C28.799 35.2183 28.8997 35.2369 29.0002 35.2369C29.1008 35.2369 29.2015 35.2184 29.2968 35.1814C32.3987 33.9785 35.5735 31.7513 38.0073 29.0709C39.9861 26.8916 42.3449 23.4464 42.3449 19.4096V8.22652C42.3447 7.85844 42.0996 7.53547 41.7451 7.43645ZM40.7041 19.4096C40.7041 22.1505 39.315 25.19 36.7925 27.968C34.6356 30.3438 31.7435 32.4058 29.0001 33.5334C26.2567 32.4057 23.3647 30.3437 21.2076 27.968C18.6853 25.19 17.2961 22.1506 17.2961 19.4096V8.84234C20.1379 7.98488 22.9429 6.68645 25.6461 4.97656H32.3542C35.0571 6.68633 37.8621 7.98477 40.7041 8.84234V19.4096ZM24.6092 17.0548C23.8988 15.8991 22.3804 15.5369 21.2249 16.2472C20.665 16.5914 20.2727 17.1329 20.1201 17.772C19.9675 18.4112 20.0731 19.0715 20.4172 19.6313L23.2747 24.2818C23.6281 24.8568 24.1852 25.245 24.8434 25.3747C25.0033 25.4062 25.1659 25.4217 25.3289 25.4217C25.8923 25.4217 26.4595 25.2361 26.9391 24.886L36.9379 17.5883C37.4677 17.2025 37.8156 16.6336 37.9174 15.9862C38.0192 15.3388 37.8628 14.6905 37.4771 14.1608C36.6806 13.0671 35.1433 12.8253 34.0488 13.6221L26.0756 19.4415L24.6092 17.0548ZM35.0154 14.9477C35.3778 14.6839 35.887 14.7639 36.1509 15.1264C36.2788 15.302 36.3304 15.5166 36.2968 15.7311C36.2631 15.9455 36.1479 16.134 35.9715 16.2624L25.9719 23.5607C25.7223 23.743 25.4264 23.8171 25.1606 23.765C24.9508 23.7236 24.7866 23.6084 24.6724 23.4228L21.815 18.7725L21.8149 18.7723C21.7002 18.5859 21.6651 18.3659 21.7159 18.153C21.7668 17.9401 21.8975 17.7596 22.084 17.645C22.2175 17.563 22.3656 17.5238 22.5118 17.5238C22.7874 17.5238 23.0567 17.6626 23.2114 17.9139L25.1428 21.0573C25.2625 21.2523 25.4584 21.3883 25.683 21.4326C25.9073 21.4767 26.1403 21.4254 26.3252 21.2904L35.0154 14.9477Z" fill="currentColor"/>
    </symbol>

    <symbol viewBox="0 0 11 19" id="arrow-right" xmlns="http://www.w3.org/2000/svg">
        <path d="M1.72196 18.5344L10.1595 10.0969C10.2379 10.0186 10.3001 9.92552 10.3426 9.82309C10.3851 9.72066 10.4069 9.61086 10.4069 9.49998C10.4069 9.3891 10.3851 9.2793 10.3426 9.17687C10.3001 9.07445 10.2379 8.98139 10.1595 8.90303L1.72196 0.465528C1.56364 0.307206 1.34891 0.218262 1.12501 0.218262C0.90111 0.218262 0.68638 0.307206 0.528058 0.465528C0.369736 0.62385 0.280792 0.83858 0.280792 1.06248C0.280792 1.28638 0.369736 1.50111 0.528058 1.65943L8.36966 9.49998L0.528057 17.3405C0.449664 17.4189 0.387479 17.512 0.345053 17.6144C0.302627 17.7168 0.280791 17.8266 0.280791 17.9375C0.280791 18.0483 0.302627 18.1581 0.345053 18.2605C0.387479 18.363 0.449664 18.456 0.528057 18.5344C0.60645 18.6128 0.699516 18.675 0.801942 18.7174C0.904367 18.7599 1.01415 18.7817 1.12501 18.7817C1.23587 18.7817 1.34565 18.7599 1.44808 18.7174C1.5505 18.675 1.64357 18.6128 1.72196 18.5344Z" fill="currentColor"/>
    </symbol>

    <symbol viewBox="0 0 11 19" id="arrow-left" xmlns="http://www.w3.org/2000/svg">
        <path d="M8.96575 0.465567L0.52825 8.90307C0.449801 8.98143 0.387567 9.07448 0.345106 9.17691C0.302645 9.27934 0.28079 9.38914 0.28079 9.50002C0.28079 9.6109 0.302645 9.7207 0.345106 9.82313C0.387567 9.92556 0.449801 10.0186 0.52825 10.097L8.96575 18.5345C9.12407 18.6928 9.3388 18.7817 9.5627 18.7817C9.7866 18.7817 10.0013 18.6928 10.1597 18.5345C10.318 18.3762 10.4069 18.1614 10.4069 17.9375C10.4069 17.7136 10.318 17.4989 10.1597 17.3406L2.31806 9.50002L10.1597 1.65947C10.238 1.58108 10.3002 1.48801 10.3427 1.38559C10.3851 1.28316 10.4069 1.17338 10.4069 1.06252C10.4069 0.951654 10.3851 0.841877 10.3427 0.73945C10.3002 0.637026 10.238 0.543959 10.1597 0.465567C10.0813 0.387173 9.9882 0.324989 9.88577 0.282564C9.78335 0.240137 9.67357 0.2183 9.5627 0.2183C9.45184 0.2183 9.34206 0.240137 9.23963 0.282564C9.13721 0.324989 9.04414 0.387173 8.96575 0.465567Z" fill="currentColor"/>
    </symbol>

    <symbol viewBox="0 0 20 20" id="close" xmlns="http://www.w3.org/2000/svg">
        <path d="M19.7076 18.2925C19.8005 18.3854 19.8742 18.4957 19.9245 18.6171C19.9747 18.7385 20.0006 18.8686 20.0006 19C20.0006 19.1314 19.9747 19.2615 19.9245 19.3829C19.8742 19.5043 19.8005 19.6146 19.7076 19.7075C19.6147 19.8004 19.5044 19.8741 19.383 19.9244C19.2616 19.9747 19.1315 20.0006 19.0001 20.0006C18.8687 20.0006 18.7386 19.9747 18.6172 19.9244C18.4958 19.8741 18.3855 19.8004 18.2926 19.7075L10.0001 11.4138L1.70757 19.7075C1.51993 19.8951 1.26543 20.0006 1.00007 20.0006C0.734704 20.0006 0.480208 19.8951 0.292568 19.7075C0.104927 19.5199 -0.000488276 19.2654 -0.000488281 19C-0.000488286 18.7346 0.104927 18.4801 0.292568 18.2925L8.58632 10L0.292568 1.70751C0.104927 1.51987 -0.000488281 1.26537 -0.000488281 1.00001C-0.000488281 0.734643 0.104927 0.480147 0.292568 0.292507C0.480208 0.104866 0.734704 -0.000549316 1.00007 -0.000549316C1.26543 -0.000549316 1.51993 0.104866 1.70757 0.292507L10.0001 8.58626L18.2926 0.292507C18.4802 0.104866 18.7347 -0.000549322 19.0001 -0.000549316C19.2654 -0.000549311 19.5199 0.104866 19.7076 0.292507C19.8952 0.480147 20.0006 0.734643 20.0006 1.00001C20.0006 1.26537 19.8952 1.51987 19.7076 1.70751L11.4138 10L19.7076 18.2925Z" fill="currentColor"/>
    </symbol>

    <symbol viewBox="0 0 26 24" id="filter" xmlns="http://www.w3.org/2000/svg">
        <path d="M25.825 1.19125C25.6711 0.835641 25.416 0.533122 25.0915 0.32132C24.767 0.109518 24.3875 -0.00221999 24 1.98822e-06H1.99997C1.61288 0.000764687 1.23433 0.11384 0.910248 0.32551C0.586162 0.537181 0.330465 0.83835 0.174176 1.19248C0.0178864 1.54661 -0.0322785 1.93849 0.0297666 2.32057C0.0918116 2.70265 0.2634 3.05852 0.523717 3.345L0.533717 3.35625L8.99997 12.3963V22C8.99988 22.362 9.09803 22.7172 9.28396 23.0278C9.46989 23.3383 9.73661 23.5926 10.0557 23.7635C10.3748 23.9344 10.7343 24.0155 11.0958 23.9982C11.4574 23.9808 11.8075 23.8657 12.1087 23.665L16.1087 20.9975C16.3829 20.8149 16.6078 20.5673 16.7632 20.2768C16.9187 19.9864 17 19.662 17 19.3325V12.3963L25.4675 3.35625L25.4775 3.345C25.7405 3.05983 25.9138 2.70349 25.9756 2.32046C26.0374 1.93744 25.985 1.54469 25.825 1.19125ZM15.2725 11.3225C15.0995 11.5059 15.0021 11.7479 15 12V19.3325L11 22V12C11 11.7461 10.9035 11.5016 10.73 11.3163L1.99997 2H24L15.2725 11.3225Z" fill="currentColor"/>
    </symbol>

    <symbol viewBox="0 0 19 15" id="check" xmlns="http://www.w3.org/2000/svg">
        <path d="M18.4435 3.8333L8.42019 13.8559C7.67795 14.5983 6.47392 14.5983 5.73098 13.8559L0.556889 8.68142C-0.18563 7.93904 -0.18563 6.73488 0.556889 5.99236C1.29955 5.2497 2.50348 5.2497 3.24581 5.99208L7.07598 9.8223L15.7541 1.14409C16.4968 0.401435 17.7008 0.401998 18.4432 1.14409C19.1856 1.88661 19.1856 3.09036 18.4435 3.8333Z" fill="currentColor"/>
    </symbol>

    <symbol viewBox="0 0 17 17" id="ross" xmlns="http://www.w3.org/2000/svg">
        <path fill-rule="evenodd" clip-rule="evenodd" d="M4.10158 0.596304C3.35452 -0.150754 2.14329 -0.150754 1.39623 0.596304C0.649172 1.34336 0.649172 2.55458 1.39623 3.30164L6.1306 8.03599L1.39623 12.7703C0.649172 13.5174 0.649172 14.7286 1.39623 15.4757C2.14329 16.2227 3.35452 16.2227 4.10158 15.4757L8.83594 10.7413L13.5703 15.4757C14.3174 16.2227 15.5286 16.2227 16.2756 15.4757C17.0227 14.7286 17.0227 13.5174 16.2756 12.7703L11.5413 8.03599L16.2756 3.30166C17.0227 2.5546 17.0227 1.34338 16.2756 0.596318C15.5286 -0.150741 14.3174 -0.15074 13.5703 0.596318L8.83594 5.33065L4.10158 0.596304Z" fill="currentColor"/>
    </symbol>





    <symbol viewBox="0 0 0 0" id="id" xmlns="http://www.w3.org/2000/svg">

    </symbol>

</svg>
